<svg xmlns="http://www.w3.org/2000/svg" width="21.431" height="22.376" viewBox="0 0 21.431 22.376"><defs><style>.a{fill:#05386b;}</style></defs><g transform="translate(0 0)"><path class="a" d="M125.023,250.817H112.586a.328.328,0,1,0,0,.655h12.437a.328.328,0,1,0,0-.655Z" transform="translate(-108.075 -239.855)"/><path class="a" d="M184.748,299.4H178.3a.328.328,0,1,0,0,.655h6.453a.328.328,0,1,0,0-.655Z" transform="translate(-170.792 -286.312)"/><path class="a" d="M289.929,168.565h-4.57a.328.328,0,1,0,0,.655h4.57a.328.328,0,1,0,0-.655Z" transform="translate(-272.981 -161.198)"/><path class="a" d="M289.929,130.408h-4.57a.328.328,0,1,0,0,.655h4.57a.328.328,0,1,0,0-.655Z" transform="translate(-272.981 -124.709)"/><path class="a" d="M41.751,18.238a.335.335,0,0,0,.341-.328V10.86a1.042,1.042,0,0,0-.4-.82L40.071,8.764V4.713a1.5,1.5,0,0,0-.47-1.09L36.3.452A1.631,1.631,0,0,0,35.161,0H24.29a1.577,1.577,0,0,0-1.606,1.542V8.764l-1.618,1.275a1.042,1.042,0,0,0-.4.82V21.315a1.086,1.086,0,0,0,1.106,1.062H40.987a1.086,1.086,0,0,0,1.106-1.062V19.469a.342.342,0,0,0-.683,0v1.768l-7.218-4.781L41.41,11.18v6.731a.335.335,0,0,0,.341.328ZM36.026,1.119,38.9,3.882H36.469a.435.435,0,0,1-.443-.425V1.119ZM22.684,9.612v1.723l-1.134-.829ZM21.345,21.288V11.18l7.222,5.28Zm19.593.433H21.893l7.245-4.844c1.526,1.116,1.68,1.318,2.24,1.318.691,0,.9-.411,2.243-1.321Zm-1.55-12.8h0v2.915l-7.594,5.552-.014.011a.641.641,0,0,1-.8,0l-.014-.011-7.594-5.553V8.92h0V1.542A.906.906,0,0,1,24.29.655H35.161a.971.971,0,0,1,.182.017V3.457a1.105,1.105,0,0,0,1.126,1.08h2.9a.861.861,0,0,1,.018.175V8.919Zm.683,2.416V9.612l1.134.894Z" transform="translate(-20.662 0)"/><path class="a" d="M112.7,62.322h3.763a1.059,1.059,0,0,0,1.079-1.036V56.808a1.059,1.059,0,0,0-1.079-1.036H112.7a1.059,1.059,0,0,0-1.079,1.036v.382a.342.342,0,0,0,.683,0v-.382a.389.389,0,0,1,.4-.38h3.763a.389.389,0,0,1,.4.38v3.555a3.08,3.08,0,0,0-1.008-.7,1.405,1.405,0,0,0,.247-.795,1.518,1.518,0,0,0-3.033,0,1.405,1.405,0,0,0,.247.795,3.079,3.079,0,0,0-1.008.7V58.722a.342.342,0,0,0-.683,0v2.564A1.059,1.059,0,0,0,112.7,62.322Zm1.882-4.251a.8.8,0,1,1-.833.8A.818.818,0,0,1,114.577,58.071Zm-.7,2.09a1.567,1.567,0,0,0,1.4,0,2.37,2.37,0,0,1,1.521,1.318.4.4,0,0,1-.341.188H112.7a.4.4,0,0,1-.341-.188A2.37,2.37,0,0,1,113.875,60.161Z" transform="translate(-107.475 -53.335)"/></g></svg>