<svg xmlns="http://www.w3.org/2000/svg" width="21.431" height="20.571" viewBox="0 0 21.431 20.571"><defs><style>.a{fill:#05386b;}</style></defs><g transform="translate(13.215 0)"><path class="a" d="M316.083,0a.35.35,0,0,0-.357.343.35.35,0,0,0,.357.343,7.013,7.013,0,0,1,7.144,6.857.357.357,0,0,0,.714,0A7.714,7.714,0,0,0,316.083,0Z" transform="translate(-315.726)"/></g><g transform="translate(13.215 2.057)"><path class="a" d="M316.083,51.2a.343.343,0,1,0,0,.686,4.909,4.909,0,0,1,5,4.8.357.357,0,0,0,.714,0A5.61,5.61,0,0,0,316.083,51.2Z" transform="translate(-315.726 -51.2)"/></g><g transform="translate(13.215 4.114)"><path class="a" d="M316.083,102.4a.343.343,0,1,0,0,.686,2.805,2.805,0,0,1,2.857,2.743.357.357,0,0,0,.714,0A3.506,3.506,0,0,0,316.083,102.4Z" transform="translate(-315.726 -102.4)"/></g><g transform="translate(0 0)"><path class="a" d="M19.33,12.865a13.5,13.5,0,0,1-2.848-.68,2.526,2.526,0,0,0-2.576.527l-1.129,1.081a15.989,15.989,0,0,1-5.744-5.5l1.13-1.082a2.274,2.274,0,0,0,.55-2.467A12.07,12.07,0,0,1,8,2.011,2.419,2.419,0,0,0,5.565,0H2.44c-.073,0-.146,0-.218.01A2.46,2.46,0,0,0,.568.84,2.262,2.262,0,0,0,.012,2.554a19.642,19.642,0,0,0,3.252,8.8,20.387,20.387,0,0,0,6.357,6.091,21.679,21.679,0,0,0,9.152,3.117q.11.009.222.009H19a2.393,2.393,0,0,0,2.431-2.347V15.234A2.371,2.371,0,0,0,19.33,12.865Zm1.388,2.357v3A1.692,1.692,0,0,1,19,19.885c-.056,0-.109,0-.156-.006a20.942,20.942,0,0,1-8.836-3.012,19.688,19.688,0,0,1-6.141-5.884,18.972,18.972,0,0,1-3.142-8.5A1.6,1.6,0,0,1,1.116,1.28,1.739,1.739,0,0,1,2.286.692c.051,0,.1-.007.154-.007H5.585A1.708,1.708,0,0,1,7.294,2.1a12.732,12.732,0,0,0,.749,2.88,1.606,1.606,0,0,1-.387,1.742L6.333,7.993a.332.332,0,0,0-.058.412,16.687,16.687,0,0,0,6.384,6.115.368.368,0,0,0,.429-.056L14.409,13.2a1.789,1.789,0,0,1,1.822-.372,14.226,14.226,0,0,0,3,.717A1.675,1.675,0,0,1,20.717,15.222Z" transform="translate(-0.002 0)"/></g><g transform="translate(1.427 1.371)"><path class="a" d="M38.027,34.134H35.108c-.03,0-.06,0-.089,0a1.02,1.02,0,0,0-.686.345.938.938,0,0,0-.232.689,18.893,18.893,0,0,0,.727,3.517.356.356,0,0,0,.342.245.367.367,0,0,0,.1-.014.341.341,0,0,0,.24-.426,18.2,18.2,0,0,1-.7-3.388.266.266,0,0,1,.069-.183.319.319,0,0,1,.228-.1h2.919a.343.343,0,1,0,0-.686Z" transform="translate(-34.097 -34.134)"/></g><g transform="translate(15.001 15.085)"><path class="a" d="M363.039,375.467a.35.35,0,0,0-.357.343v2.8a.28.28,0,0,1-.086.2.3.3,0,0,1-.2.084h-.033a20.372,20.372,0,0,1-3.505-.671.36.36,0,0,0-.445.23.341.341,0,0,0,.24.427,21.123,21.123,0,0,0,3.64.7c.029,0,.089,0,.1,0a1.027,1.027,0,0,0,.714-.287.948.948,0,0,0,.294-.688v-2.8A.35.35,0,0,0,363.039,375.467Z" transform="translate(-358.396 -375.467)"/></g></svg>