<svg xmlns="http://www.w3.org/2000/svg" width="21.431" height="26.611" viewBox="0 0 21.431 26.611"><defs><style>.a{fill:#05386b;}</style></defs><g transform="translate(0)"><path class="a" d="M73.346,2.159V.39A.4.4,0,0,0,72.94,0H70.119a.4.4,0,0,0-.406.39v.82c-.3-.024-.594-.037-.892-.037A10.657,10.657,0,0,0,58.106,11.745a10.365,10.365,0,0,0,1.028,4.524c1.669,3.475,9.1,9.969,9.415,10.244.219.191.457.073.649-.086.23-.192,4.1-3.772,5.043-4.7.2-.2.49-.451.262-.737a.419.419,0,0,0-.616-.045c-1.959,2-4.281,4.065-5.064,4.755-1.373-1.22-7.525-6.783-8.951-9.753a9.617,9.617,0,0,1-.953-4.2,9.86,9.86,0,0,1,9.9-9.793c.3,0,.6.013.892.039v.881H68.79a.4.4,0,0,0-.406.39v.955a7.747,7.747,0,0,0-3,.778c-.467.228-.1.924.369.695A6.913,6.913,0,0,1,68.384,5v5.6h-1.1V7.26a.407.407,0,0,0-.812,0V10.6h-.852V8.926a.407.407,0,0,0-.812,0V10.6H63.374a.4.4,0,0,0-.406.39v4.479a6.774,6.774,0,0,1,1.305-8.8c.39-.336-.153-.916-.543-.58a7.573,7.573,0,0,0-2.644,5.736,7.685,7.685,0,0,0,7.671,7.618h.064a7.686,7.686,0,0,0,7.735-7.619A7.551,7.551,0,0,0,74.7,6.878a.4.4,0,0,0-.029-.03v-3a9.761,9.761,0,0,1,4.049,7.9,9.616,9.616,0,0,1-.953,4.2,17.475,17.475,0,0,1-2.7,3.762c-.342.378.268.892.613.511a17.989,17.989,0,0,0,2.829-3.947,10.364,10.364,0,0,0,1.028-4.524A10.568,10.568,0,0,0,73.346,2.159ZM70.525.78h2.009V2.357a.374.374,0,0,0,0,.094v.421H70.525ZM63.765,16.49a.373.373,0,0,0,.015-.1V11.381h4.588v7.267A6.941,6.941,0,0,1,63.765,16.49ZM69.2,18.653v-15h4.666v12.8a.369.369,0,0,0,0,.047A6.941,6.941,0,0,1,69.2,18.653Zm6.547-6.829a6.739,6.739,0,0,1-1.069,3.647v-7.3A6.782,6.782,0,0,1,75.744,11.824Z" transform="translate(-58.106 0)"/><path class="a" d="M285.993,110.5h-1.6a.39.39,0,1,0,0,.78h1.6A.39.39,0,1,0,285.993,110.5Z" transform="translate(-271.772 -104.756)"/><path class="a" d="M285.993,168.833h-1.6a.39.39,0,1,0,0,.78h1.6A.39.39,0,1,0,285.993,168.833Z" transform="translate(-271.772 -160.057)"/><path class="a" d="M285.993,227.167h-1.6a.39.39,0,1,0,0,.78h1.6A.39.39,0,1,0,285.993,227.167Z" transform="translate(-271.772 -215.359)"/><path class="a" d="M285.993,285.5h-1.6a.39.39,0,1,0,0,.78h1.6A.39.39,0,1,0,285.993,285.5Z" transform="translate(-271.772 -270.66)"/><path class="a" d="M181.151,242.121a.4.4,0,0,0-.406.39v.8a.406.406,0,0,0,.812,0v-.8A.4.4,0,0,0,181.151,242.121Z" transform="translate(-174.104 -229.536)"/><path class="a" d="M181.151,296.252a.4.4,0,0,0-.406.39v.8a.406.406,0,0,0,.812,0v-.8A.4.4,0,0,0,181.151,296.252Z" transform="translate(-174.104 -280.853)"/><path class="a" d="M214.151,242.121a.4.4,0,0,0-.406.39v.8a.406.406,0,0,0,.812,0v-.8A.4.4,0,0,0,214.151,242.121Z" transform="translate(-205.317 -229.536)"/><path class="a" d="M214.151,296.252a.4.4,0,0,0-.406.39v.8a.406.406,0,0,0,.812,0v-.8A.4.4,0,0,0,214.151,296.252Z" transform="translate(-205.317 -280.853)"/></g></svg>