<svg id="Group_2728" data-name="Group 2728" xmlns="http://www.w3.org/2000/svg" width="23.981" height="23.982" viewBox="0 0 23.981 23.982">
  <g id="Group_2477" data-name="Group 2477">
    <path id="Path_12256" data-name="Path 12256" d="M22.782,20.841V7.937a1.6,1.6,0,0,0-.4-3.141,1.578,1.578,0,0,0-.807.227L18.959,2.406a1.577,1.577,0,0,0,.227-.807,1.6,1.6,0,0,0-3.141-.4H3.141A1.6,1.6,0,1,0,1.2,3.141v12.9a1.6,1.6,0,0,0,.4,3.141,1.578,1.578,0,0,0,.807-.227l2.617,2.617a1.577,1.577,0,0,0-.227.807,1.6,1.6,0,0,0,3.141.4h12.9a1.6,1.6,0,1,0,1.942-1.942Zm-.965-15.01a.8.8,0,1,1-.126.965A.8.8,0,0,1,21.817,5.831Zm-.807-.243a1.564,1.564,0,0,0-.17.407H17.986V3.141a1.564,1.564,0,0,0,.407-.17Zm-4.2-4.2a.8.8,0,1,1,.373.9A.8.8,0,0,1,16.814,1.392Zm1.34,16.759a.8.8,0,1,1,.232-.564.8.8,0,0,1-.232.564ZM5.83,5.83A.8.8,0,1,1,5.6,6.4.8.8,0,0,1,5.83,5.83Zm.965,2.107A1.6,1.6,0,0,0,7.937,6.8h9.25v9.25a1.6,1.6,0,0,0-1.142,1.142H6.795ZM3.141,2h12.9a1.6,1.6,0,0,0,1.142,1.142V6H7.937A1.6,1.6,0,0,0,6.4,4.8a1.578,1.578,0,0,0-.807.227L2.971,2.406A1.564,1.564,0,0,0,3.141,2ZM.8,1.6a.8.8,0,1,1,.494.738A.8.8,0,0,1,.8,1.6ZM2.165,18.151a.8.8,0,1,1,.126-.965A.8.8,0,0,1,2.165,18.151ZM2,16.045V3.141a1.564,1.564,0,0,0,.407-.17L5.023,5.588A1.577,1.577,0,0,0,4.8,6.4,1.6,1.6,0,0,0,6,7.937v9.25H3.141A1.6,1.6,0,0,0,2,16.045Zm.972,2.349a1.564,1.564,0,0,0,.17-.407H6v2.855a1.564,1.564,0,0,0-.407.17Zm4.2,4.2a.8.8,0,1,1-.373-.9A.8.8,0,0,1,7.168,22.59Zm13.673-.607H7.937a1.6,1.6,0,0,0-1.142-1.142V17.986h9.25a1.6,1.6,0,0,0,1.542,1.2,1.578,1.578,0,0,0,.807-.227l2.617,2.617A1.564,1.564,0,0,0,20.841,21.983Zm-1.882-3.59a1.577,1.577,0,0,0,.227-.807,1.6,1.6,0,0,0-1.2-1.542V6.8h2.855a1.6,1.6,0,0,0,1.142,1.142v12.9a1.564,1.564,0,0,0-.407.17Zm3.632,4.762a.8.8,0,1,1,.592-.773A.8.8,0,0,1,22.59,23.155Z" transform="translate(0 0)" fill="#12356a"/>
  </g>
</svg>
