<svg id="bounding-box" xmlns="http://www.w3.org/2000/svg" width="23.982" height="23.982" viewBox="0 0 23.982 23.982">
  <path id="Path_6056" data-name="Path 6056" d="M53.629,3.2a1.6,1.6,0,1,1,1.6-1.6A1.6,1.6,0,0,1,53.629,3.2Zm0-2.4a.8.8,0,1,0,.8.8A.8.8,0,0,0,53.629.8Z" transform="translate(-31.245 0)" fill="#95989d"/>
  <path id="Path_6057" data-name="Path 6057" d="M44.629,12.2a1.6,1.6,0,1,1,1.6-1.6A1.6,1.6,0,0,1,44.629,12.2Zm0-2.4a.8.8,0,1,0,.8.8A.8.8,0,0,0,44.629,9.8Z" transform="translate(-25.843 -5.403)" fill="#95989d"/>
  <path id="Path_6058" data-name="Path 6058" d="M1.629,3.2a1.6,1.6,0,1,1,1.6-1.6,1.6,1.6,0,0,1-1.6,1.6Zm0-2.4a.8.8,0,1,0,.8.8A.8.8,0,0,0,1.629.8Z" transform="translate(-0.03 0)" fill="#95989d"/>
  <path id="Path_6059" data-name="Path 6059" d="M10.629,12.2a1.6,1.6,0,1,1,1.6-1.6A1.6,1.6,0,0,1,10.629,12.2Zm0-2.4a.8.8,0,1,0,.8.8A.8.8,0,0,0,10.629,9.8Z" transform="translate(-5.433 -5.403)" fill="#95989d"/>
  <path id="Path_6060" data-name="Path 6060" d="M53.629,55.2a1.6,1.6,0,1,1,1.6-1.6A1.6,1.6,0,0,1,53.629,55.2Zm0-2.4a.8.8,0,1,0,.8.8A.8.8,0,0,0,53.629,52.8Z" transform="translate(-31.245 -31.215)" fill="#95989d"/>
  <path id="Path_6061" data-name="Path 6061" d="M44.629,46.2a1.6,1.6,0,1,1,1.6-1.6A1.6,1.6,0,0,1,44.629,46.2Zm0-2.4a.8.8,0,1,0,.8.8A.8.8,0,0,0,44.629,43.8Z" transform="translate(-25.843 -25.813)" fill="#95989d"/>
  <path id="Path_6062" data-name="Path 6062" d="M1.629,55.2a1.6,1.6,0,1,1,1.6-1.6,1.6,1.6,0,0,1-1.6,1.6Zm0-2.4a.8.8,0,1,0,.8.8A.8.8,0,0,0,1.629,52.8Z" transform="translate(-0.03 -31.215)" fill="#95989d"/>
  <path id="Path_6063" data-name="Path 6063" d="M10.629,46.2a1.6,1.6,0,1,1,1.6-1.6A1.6,1.6,0,0,1,10.629,46.2Zm0-2.4a.8.8,0,1,0,.8.8A.8.8,0,0,0,10.629,43.8Z" transform="translate(-5.433 -25.813)" fill="#95989d"/>
  <path id="Path_6064" data-name="Path 6064" d="M23.015,24.584H4.629a.4.4,0,0,1-.4-.4.8.8,0,0,0-.8-.8.4.4,0,0,1-.4-.4V4.6a.4.4,0,0,1,.4-.4.8.8,0,0,0,.8-.8.4.4,0,0,1,.4-.4H23.015a.4.4,0,0,1,.4.4.8.8,0,0,0,.8.8.4.4,0,0,1,.4.4V22.985a.4.4,0,0,1-.4.4.8.8,0,0,0-.8.8A.4.4,0,0,1,23.015,24.584Zm-18.037-.8H22.666a1.605,1.605,0,0,1,1.149-1.149V4.948A1.605,1.605,0,0,1,22.666,3.8H4.978A1.605,1.605,0,0,1,3.829,4.948V22.636A1.6,1.6,0,0,1,4.978,23.785Zm15.639-1.6a1.6,1.6,0,0,1-1.548-1.2H8.575a1.6,1.6,0,1,1-1.948-1.948V8.545A1.6,1.6,0,1,1,8.575,6.6H19.068a1.6,1.6,0,1,1,1.948,1.948V19.038a1.6,1.6,0,0,1-.4,3.147Zm-12.391-2H19.418a.4.4,0,0,1,.4.4.8.8,0,1,0,.8-.8.4.4,0,0,1-.4-.4V8.2a.4.4,0,0,1,.4-.4.8.8,0,1,0-.8-.8.4.4,0,0,1-.4.4H8.226a.4.4,0,0,1-.4-.4.8.8,0,1,0-.8.8.4.4,0,0,1,.4.4V19.388a.4.4,0,0,1-.4.4.8.8,0,1,0,.8.8A.4.4,0,0,1,8.226,20.187Z" transform="translate(-1.831 -1.801)" fill="#95989d"/>
</svg>
