<svg id="category" xmlns="http://www.w3.org/2000/svg" width="23.982" height="23.982" viewBox="0 0 23.982 23.982">
  <path id="Path_12255" data-name="Path 12255" d="M10.3,0H.937A.937.937,0,0,0,0,.937V10.3a.937.937,0,0,0,.937.937H10.3a.937.937,0,0,0,.937-.937V.937A.937.937,0,0,0,10.3,0ZM9.368,9.368H1.874V1.874H9.368ZM23.4,12.812a.937.937,0,0,0-1.021.2l-9.368,9.368a.937.937,0,0,0,.662,1.6h9.368a.937.937,0,0,0,.937-.937V13.677A.937.937,0,0,0,23.4,12.812Zm-1.3,9.3h-6.17l6.17-6.17ZM18.361,11.242a5.621,5.621,0,1,0-5.621-5.621A5.627,5.627,0,0,0,18.361,11.242Zm0-9.368a3.747,3.747,0,1,1-3.747,3.747A3.751,3.751,0,0,1,18.361,1.874ZM10.967,14.34,6.946,18.361l4.021,4.021a.937.937,0,0,1-1.325,1.325L5.621,19.686,1.6,23.708A.937.937,0,0,1,.274,22.383L4.3,18.361.274,14.34A.937.937,0,0,1,1.6,13.015l4.022,4.021,4.022-4.022a.937.937,0,1,1,1.325,1.325Zm0,0" fill="#12356a"/>
</svg>
