<svg id="path" xmlns="http://www.w3.org/2000/svg" width="23.982" height="15.739" viewBox="0 0 23.982 15.739">
  <path id="Path_6067" data-name="Path 6067" d="M22.815,3.8A1.166,1.166,0,0,0,21.65,4.971a1.143,1.143,0,0,0,.068.381L18.3,10.437,14.08,6.371a1.19,1.19,0,0,0,.023-.234,1.167,1.167,0,1,0-1.361,1.146L15.5,14.216l-3.185-1.566c0-.037.011-.073.011-.11a1.167,1.167,0,1,0-1.938.869l-.619,3.827a1.157,1.157,0,0,0-.712.453l-6.74-1.822a1.167,1.167,0,1,0-.467,1.123L8.959,18.91a1.162,1.162,0,1,0,1.96-1.232l.654-4.049L15.588,15.6a1.164,1.164,0,1,0,1.24-1.312L14.509,8.46l3.475,3.345a.594.594,0,0,0,.482.165.6.6,0,0,0,.437-.263l3.753-5.586a1.149,1.149,0,0,0,.16.016,1.167,1.167,0,1,0,0-2.333Z" transform="translate(0 -3.804)" fill="#95989d"/>
</svg>
