<svg id="Layer_1" data-name="Layer 1" xmlns="http://www.w3.org/2000/svg" width="45.539" height="47.512" viewBox="0 0 45.539 47.512">
  <path id="Path_6069" data-name="Path 6069" d="M253,132.068a4.219,4.219,0,0,1,.069,2.533l.413.029,1.084-1.773-.878-1.028-.689.238" transform="translate(-245.41 -125.67)" fill="#FFFFFF"/>
  <path id="Path_6070" data-name="Path 6070" d="M275,117.7a2.58,2.58,0,0,0,1.843.439l-.023.31-1.1.36-.669-.911-.048-.2" transform="translate(-264.234 -113.486)" fill="#FFFFFF"/>
  <path id="Path_6071" data-name="Path 6071" d="M235.014,295.827s-.906-1.216.413-.288l.222-.464-1.018-.551-.861-.354.375,1.929Z" transform="translate(-229.17 -265.646)" fill="#FFFFFF"/>
  <path id="Path_6072" data-name="Path 6072" d="M222.285,247.63s-.442,1.437.707.551l.044.4-.707,1.127-1.349.022.6-1.929Z" transform="translate(-218.142 -225.517)" fill="#FFFFFF"/>
  <path id="Path_6073" data-name="Path 6073" d="M277.335,361.957s.951,1.47.795-.167c0,0,.123.066.156.077s.608,2,.608,2l-.827.121-.906-1.515Z" transform="translate(-266.083 -323.951)" fill="#FFFFFF"/>
  <path id="Path_6074" data-name="Path 6074" d="M311.722,389.67s-2.135.646.007,1.139l-.123.309-2.5-.7.19-.413Z" transform="translate(-293.409 -347.99)" fill="#FFFFFF"/>
  <path id="Path_6075" data-name="Path 6075" d="M302.179,404.465a3.147,3.147,0,0,1,2.4-.608l-.019-.165-1.026-.2-.971-.081-.5.9.119.157" transform="translate(-287.379 -359.838)" fill="#FFFFFF"/>
  <path id="Path_6076" data-name="Path 6076" d="M292.953,361.16a2.963,2.963,0,0,0,3.846,2.7l.045.275-1.98.84-1.415-.376-.541-1.393-.2-1.536.011-.42Z" transform="translate(-279.353 -323.408)" fill="#FFFFFF"/>
  <path id="Path_6077" data-name="Path 6077" d="M409.353,412.716a1.972,1.972,0,0,1,.855-1.317l-.123-.189-.945.66-.211.477.189.541.233-.167" transform="translate(-378.858 -366.563)" fill="#FFFFFF"/>
  <path id="Path_6078" data-name="Path 6078" d="M378.93,398.488a3.79,3.79,0,0,0,5.235-.138l.022.165-1.846,2.035-2.033.022-1.868-1.958Z" transform="translate(-352.629 -355.475)" fill="#FFFFFF"/>
  <path id="Path_6079" data-name="Path 6079" d="M466.149,347.332s1.5-1.208-.559-.9c0,0,.044-.4.088-.4s3.094-.574,3.094-.574l-.736.884-1.755,1.283Z" transform="translate(-427.079 -309.871)" fill="#FFFFFF"/>
  <path id="Path_6080" data-name="Path 6080" d="M481.051,329.17a3.7,3.7,0,0,1-1.721,1.258v.165l2.077-.068.172-1.4-.53.04" transform="translate(-438.927 -295.79)" fill="#FFFFFF"/>
  <path id="Path_6081" data-name="Path 6081" d="M488.606,351.031a2.832,2.832,0,0,1,1.847-.585v-.138l-1-.138-.953.559.012.276Z" transform="translate(-446.833 -313.932)" fill="#FFFFFF"/>
  <path id="Path_6082" data-name="Path 6082" d="M290.184,127.934s-1.061-.354-1.083-.53.264-.242,1.569-.486l-.044-.288-2.429.354-.288.222,1.393.689Z" transform="translate(-275.268 -121.186)" fill="#FFFFFF"/>
  <path id="Path_6083" data-name="Path 6083" d="M205.89,246.706a5.639,5.639,0,0,0,2.048-2.5l.332,1.054-.5,1.492-1.23.357-.51-.011-.138-.4h0" transform="translate(-205.131 -222.568)" fill="#FFFFFF"/>
  <path id="Path_6084" data-name="Path 6084" d="M392.151,96.726a.063.063,0,0,0-.11-.037,4.533,4.533,0,0,1-2.816,1.479l-.015.191,2.47-.223a.062.062,0,0,0,.051-.034l.446-.9a.055.055,0,0,0,.007-.033Z" transform="translate(-361.931 -95.351)" fill="#FFFFFF"/>
  <path id="Path_6085" data-name="Path 6085" d="M495.545,187.727a.029.029,0,0,0-.011-.054,2.134,2.134,0,0,1-1.3-.763l-.083.041.712.953.5-.047Z" transform="translate(-451.705 -173.162)" fill="#FFFFFF"/>
  <path id="Path_6086" data-name="Path 6086" d="M483.462,205.947a.033.033,0,0,1-.061.01,2.327,2.327,0,0,0-1.281-1.092l.014-.1,1.256.376.138.562Z" transform="translate(-441.332 -188.553)" fill="#FFFFFF"/>
  <path id="Path_6087" data-name="Path 6087" d="M440.428,108.457a.059.059,0,0,1,.1.059,4.271,4.271,0,0,0,.518,3.021l-.138.131-1.295-1.98a.059.059,0,0,1,0-.061l.437-.891a.056.056,0,0,1,.022-.025Z" transform="translate(-405.099 -105.505)" fill="#FFFFFF"/>
  <path id="Path_6088" data-name="Path 6088" d="M387.163,116.35s2.55-1.959-.583-1.576l.022-.125,3.294-.428-2.431,2.342Z" transform="translate(-359.67 -110.485)" fill="#FFFFFF"/>
  <path id="Path_6089" data-name="Path 6089" d="M473.887,185.1s2.408.846.8-1.07l.092-.04L476.488,186l-2.608-.6Z" transform="translate(-434.227 -170.644)" fill="#FFFFFF"/>
  <path id="Path_6090" data-name="Path 6090" d="M388.715,123.859s4.864-4.575,8.489.73l-.315-1.463-2.057-1.963-2.542-.413-2.321,1.584L388.51,123.7Z" transform="translate(-361.125 -116.116)" fill="#FFFFFF"/>
  <path id="Path_6091" data-name="Path 6091" d="M272.163,139.973s-.275-2.409.31-2.77,3.013.361,3.057.361-1.82-.827-1.82-.827l-1.791-.427-.449,1.378.5,2.247Z" transform="translate(-261.187 -129.532)" fill="#FFFFFF"/>
  <path id="Path_6092" data-name="Path 6092" d="M251.234,152.273s.854-2.741,1.415-2.8.383,2.033.707,3.212l.236-.944-.53-4.133-.8.59-1.384,4.067.236-.059Z" transform="translate(-243.587 -139.276)" fill="#FFFFFF"/>
  <path id="Path_6093" data-name="Path 6093" d="M224.584,258.061s-2.741-2.143-2.763-3.006,1.415-1.9,2.3-2.741l-.067-.354-3.69,2.609-.022.619,3.673,3.252Z" transform="translate(-217.59 -229.251)" fill="#FFFFFF"/>
  <path id="Path_6094" data-name="Path 6094" d="M209.207,282.056s-.382-.781-2.267-1.592l.275-.413,1.368.16.275.58.9,1.278Z" transform="translate(-206.036 -253.471)" fill="#FFFFFF"/>
  <path id="Path_6095" data-name="Path 6095" d="M372.55,417.439a6.519,6.519,0,0,1,2.661,1.453l.076-.288v-.862l-.84-.039-1.891-.354Z" transform="translate(-347.684 -371.857)" fill="#FFFFFF"/>
  <path id="Path_6096" data-name="Path 6096" d="M372.247,405.381s.431.413-.187.288v.231l.862.055-.022-.376-.519-.209Z" transform="translate(-347.315 -361.528)" fill="#FFFFFF"/>
  <ellipse id="Ellipse_43" data-name="Ellipse 43" cx="2.004" cy="2.004" rx="2.004" ry="2.004" transform="translate(7.552 3.89)" fill="#FFFFFF"/>
  <ellipse id="Ellipse_44" data-name="Ellipse 44" cx="1.65" cy="1.65" rx="1.65" ry="1.65" transform="translate(27.149 44.211)" fill="#FFFFFF"/>
  <ellipse id="Ellipse_45" data-name="Ellipse 45" cx="1.886" cy="1.886" rx="1.886" ry="1.886" transform="translate(41.767 14.502)" fill="#FFFFFF"/>
  <ellipse id="Ellipse_46" data-name="Ellipse 46" cx="1.886" cy="1.886" rx="1.886" ry="1.886" transform="translate(41.646 32.743)" fill="#FFFFFF"/>
  <ellipse id="Ellipse_47" data-name="Ellipse 47" cx="2.711" cy="2.711" rx="2.711" ry="2.711" transform="translate(29.948)" fill="#FFFFFF"/>
  <ellipse id="Ellipse_48" data-name="Ellipse 48" cx="2.711" cy="2.711" rx="2.711" ry="2.711" transform="translate(10.417 39.672)" fill="#FFFFFF"/>
  <ellipse id="Ellipse_49" data-name="Ellipse 49" cx="1.65" cy="1.65" rx="1.65" ry="1.65" transform="translate(0 23.874)" fill="#FFFFFF"/>
  <rect id="Rectangle_1696" data-name="Rectangle 1696" width="24.865" height="1.449" rx="0.725" transform="translate(8.386 5.252) rotate(-7.63)" fill="#FFFFFF"/>
  <rect id="Rectangle_1697" data-name="Rectangle 1697" width="15.13" height="1.422" rx="0.711" transform="translate(34.743 3.937) rotate(51.52)" fill="#FFFFFF"/>
  <rect id="Rectangle_1698" data-name="Rectangle 1698" width="34.333" height="1.449" rx="0.725" transform="translate(42.811 17.01) rotate(-161.7)" fill="#FFFFFF"/>
  <rect id="Rectangle_1699" data-name="Rectangle 1699" width="37.11" height="1.452" rx="0.726" transform="translate(1.761 25.075) rotate(-38.24)" fill="#FFFFFF"/>
  <rect id="Rectangle_1700" data-name="Rectangle 1700" width="37.11" height="1.452" rx="0.726" transform="matrix(-0.09, -0.996, 0.996, -0.09, 12.527, 43.763)" fill="#FFFFFF"/>
  <rect id="Rectangle_1701" data-name="Rectangle 1701" width="21.214" height="1.413" rx="0.707" transform="translate(1.401 25.614) rotate(-70.45)" fill="#FFFFFF"/>
  <rect id="Rectangle_1702" data-name="Rectangle 1702" width="21.219" height="1.424" rx="0.712" transform="matrix(-0.533, -0.846, 0.846, -0.533, 12.45, 43.328)" fill="#FFFFFF"/>
  <rect id="Rectangle_1703" data-name="Rectangle 1703" width="18.529" height="1.419" rx="0.71" transform="matrix(0.783, -0.622, 0.622, 0.783, 28.166, 45.58)" fill="#FFFFFF"/>
  <rect id="Rectangle_1704" data-name="Rectangle 1704" width="17.206" height="1.424" rx="0.712" transform="matrix(0.978, 0.21, -0.21, 0.978, 12.143, 41.468)" fill="#FFFFFF"/>
  <rect id="Rectangle_1705" data-name="Rectangle 1705" width="30.928" height="1.424" rx="0.712" transform="translate(14.012 41.715) rotate(-15.09)" fill="#FFFFFF"/>
  <rect id="Rectangle_1706" data-name="Rectangle 1706" width="33.535" height="1.424" rx="0.712" transform="matrix(0.784, 0.62, -0.62, 0.784, 1.861, 24.667)" fill="#FFFFFF"/>
</svg>
