<svg id="Group_72" data-name="Group 72" xmlns="http://www.w3.org/2000/svg" width="47.314" height="51.578" viewBox="0 0 47.314 51.578">
  <g id="Group_71" data-name="Group 71">
    <path id="Path_269" data-name="Path 269" d="M1137.788,851.109a7.522,7.522,0,1,1,7.521-7.521,7.522,7.522,0,0,1-7.521,7.521Zm3.224,5.373-2.579-1.934a1.076,1.076,0,0,0-1.29,0l-2.579,1.934v-3.793a9.485,9.485,0,0,0,6.447,0v3.793ZM1112,850.034a2.149,2.149,0,1,1-2.149-2.149,2.149,2.149,0,0,1,2.149,2.149Zm-4.3-16.118v-4.3h4.3v4.3Zm13.969-13.969v-4.3h4.3v4.3Zm10.746,37.609H1103.4a1.075,1.075,0,0,1-1.075-1.074V824.245h8.6a5.373,5.373,0,0,0,5.373-5.373v-8.6h21.491a1.075,1.075,0,0,1,1.075,1.075v22.63a9.564,9.564,0,0,0-7.135,2.085l-6.834-5.867v-8.1h3.224v-8.6h-8.6v8.6h3.224v8.6a1.074,1.074,0,0,0,.376.817l7.146,6.082a9.7,9.7,0,0,0-1.074,1.7h-18.267v-3.224h3.224v-8.6h-8.6v8.6h3.224v4.3a1.074,1.074,0,0,0,1.075,1.074h18.514a9.687,9.687,0,0,0-.247,2.149v.505l-6.791,4.868H1114a4.3,4.3,0,1,0,0,2.149h7.672a1.076,1.076,0,0,0,.623-.2l6.254-4.47a9.67,9.67,0,0,0,3.869,5.19v5.931Zm-18.267-45.765v7.081a3.224,3.224,0,0,1-3.224,3.224h-7.081l10.3-10.305Zm26.864,22.694V811.351a3.224,3.224,0,0,0-3.224-3.224h-22.63a1.057,1.057,0,0,0-.269.054h-.108a1.066,1.066,0,0,0-.311.215L1100.5,822.365a1.083,1.083,0,0,0-.215.312v.1a1.069,1.069,0,0,0-.053.279l-.054.118v33.311a3.224,3.224,0,0,0,3.224,3.224h30.087a1.077,1.077,0,0,0,.645-.2l3.653-2.75,3.653,2.74a1.074,1.074,0,0,0,1.719-.859v-7.006a9.67,9.67,0,0,0-2.149-17.193v.053Z" transform="translate(-1100.179 -808.127)" fill="#11356a"/>
  </g>
  <path id="Path_270" data-name="Path 270" d="M1172.5,878.827l-2.461-2.461-1.515,1.515,3.224,3.224a1.075,1.075,0,0,0,1.515,0l5.373-5.373-1.515-1.515-4.62,4.609Z" transform="translate(-1135.967 -842.734)" fill="#11356a"/>
  <path id="Path_271" data-name="Path 271" d="M1170.1,819.405h2.149V828H1170.1v-8.6Z" transform="translate(-1136.793 -814.033)" fill="#11356a"/>
</svg>
