<svg xmlns="http://www.w3.org/2000/svg" xmlns:xlink="http://www.w3.org/1999/xlink" width="106.172" height="102.674" viewBox="0 0 106.172 102.674">
  <defs>
    <filter id="Rectangle_14" x="3.497" y="0" width="102.674" height="102.674" filterUnits="userSpaceOnUse">
      <feOffset dy="3" input="SourceAlpha"/>
      <feGaussianBlur stdDeviation="3" result="blur"/>
      <feFlood flood-opacity="0.161"/>
      <feComposite operator="in" in2="blur"/>
      <feComposite in="SourceGraphic"/>
    </filter>
    <clipPath id="clip-path">
      <path id="Path_5635" data-name="Path 5635" d="M0,0H90.417V69.382H0Z" fill="#12356a"/>
    </clipPath>
  </defs>
  <g id="Group_2060" data-name="Group 2060" transform="translate(0 5.951)">
    <g transform="matrix(1, 0, 0, 1, 0, -5.95)" filter="url(#Rectangle_14)">
      <rect id="Rectangle_14-2" data-name="Rectangle 14" width="59.874" height="59.874" rx="13.653" transform="translate(54.83 6) rotate(45)" fill="#00d9ac" opacity="0.36"/>
    </g>
    <g id="Mask_Group_1" data-name="Mask Group 1" transform="translate(0 0)" clip-path="url(#clip-path)">
      <g id="server" transform="translate(9.929)">
        <path id="Path_5637" data-name="Path 5637" d="M117.665,121.737a5.292,5.292,0,1,0,5.292,5.292A5.3,5.3,0,0,0,117.665,121.737Zm0,8.232a2.94,2.94,0,1,1,2.94-2.94A2.943,2.943,0,0,1,117.665,129.969Z" transform="translate(-105.317 -114.681)" fill="#12356a"/>
        <ellipse id="Ellipse_13" data-name="Ellipse 13" cx="1.176" cy="1.176" rx="1.176" ry="1.176" transform="translate(57.623 9.408)" fill="#12356a"/>
        <ellipse id="Ellipse_14" data-name="Ellipse 14" cx="1.176" cy="1.176" rx="1.176" ry="1.176" transform="translate(52.919 9.408)" fill="#12356a"/>
        <ellipse id="Ellipse_15" data-name="Ellipse 15" cx="1.176" cy="1.176" rx="1.176" ry="1.176" transform="translate(59.975 12.936)" fill="#12356a"/>
        <ellipse id="Ellipse_16" data-name="Ellipse 16" cx="1.176" cy="1.176" rx="1.176" ry="1.176" transform="translate(55.271 12.936)" fill="#12356a"/>
        <ellipse id="Ellipse_17" data-name="Ellipse 17" cx="1.176" cy="1.176" rx="1.176" ry="1.176" transform="translate(48.215 9.408)" fill="#12356a"/>
        <ellipse id="Ellipse_18" data-name="Ellipse 18" cx="1.176" cy="1.176" rx="1.176" ry="1.176" transform="translate(50.567 12.936)" fill="#12356a"/>
        <ellipse id="Ellipse_19" data-name="Ellipse 19" cx="1.176" cy="1.176" rx="1.176" ry="1.176" transform="translate(43.511 9.408)" fill="#12356a"/>
        <ellipse id="Ellipse_20" data-name="Ellipse 20" cx="1.176" cy="1.176" rx="1.176" ry="1.176" transform="translate(45.863 12.936)" fill="#12356a"/>
        <ellipse id="Ellipse_21" data-name="Ellipse 21" cx="1.176" cy="1.176" rx="1.176" ry="1.176" transform="translate(38.807 9.408)" fill="#12356a"/>
        <ellipse id="Ellipse_22" data-name="Ellipse 22" cx="1.176" cy="1.176" rx="1.176" ry="1.176" transform="translate(41.159 12.936)" fill="#12356a"/>
        <path id="Path_5638" data-name="Path 5638" d="M70.558,28.641V14.783a5.425,5.425,0,0,0-5.419-5.419H5.419A5.425,5.425,0,0,0,0,14.783V28.64a5.387,5.387,0,0,0,2.09,4.243A5.393,5.393,0,0,0,0,37.127V50.983a5.387,5.387,0,0,0,2.09,4.243A5.393,5.393,0,0,0,0,59.47V73.327a5.425,5.425,0,0,0,5.419,5.42H65.138a5.425,5.425,0,0,0,5.419-5.419V59.47a5.387,5.387,0,0,0-2.09-4.243,5.386,5.386,0,0,0,2.091-4.243V37.127a5.387,5.387,0,0,0-2.09-4.243A5.389,5.389,0,0,0,70.558,28.641ZM68.206,59.47V73.327a3.071,3.071,0,0,1-3.067,3.067H5.419a3.069,3.069,0,0,1-3.067-3.066V59.47A3.071,3.071,0,0,1,5.419,56.4H65.138A3.071,3.071,0,0,1,68.206,59.47Zm0-22.344V50.983a3.071,3.071,0,0,1-3.067,3.067H5.419a3.069,3.069,0,0,1-3.067-3.066V37.127A3.07,3.07,0,0,1,5.419,34.06H65.138A3.071,3.071,0,0,1,68.206,37.127ZM5.419,31.708a3.07,3.07,0,0,1-3.067-3.067V14.783a3.07,3.07,0,0,1,3.067-3.067H65.138a3.071,3.071,0,0,1,3.068,3.067V28.64a3.07,3.07,0,0,1-3.067,3.067H5.419Z" transform="translate(0 -9.364)" fill="#12356a"/>
        <path id="Path_5639" data-name="Path 5639" d="M117.665,488.168a5.292,5.292,0,1,0-5.292-5.292A5.3,5.3,0,0,0,117.665,488.168Zm0-8.232a2.94,2.94,0,1,1-2.94,2.94A2.943,2.943,0,0,1,117.665,479.937Z" transform="translate(-105.317 -448.185)" fill="#12356a"/>
        <ellipse id="Ellipse_23" data-name="Ellipse 23" cx="1.176" cy="1.176" rx="1.176" ry="1.176" transform="translate(57.623 31.751)" fill="#12356a"/>
        <ellipse id="Ellipse_24" data-name="Ellipse 24" cx="1.176" cy="1.176" rx="1.176" ry="1.176" transform="translate(52.919 31.751)" fill="#12356a"/>
        <ellipse id="Ellipse_25" data-name="Ellipse 25" cx="1.176" cy="1.176" rx="1.176" ry="1.176" transform="translate(59.975 35.279)" fill="#12356a"/>
        <ellipse id="Ellipse_26" data-name="Ellipse 26" cx="1.176" cy="1.176" rx="1.176" ry="1.176" transform="translate(55.271 35.279)" fill="#12356a"/>
        <ellipse id="Ellipse_27" data-name="Ellipse 27" cx="1.176" cy="1.176" rx="1.176" ry="1.176" transform="translate(48.215 31.751)" fill="#12356a"/>
        <ellipse id="Ellipse_28" data-name="Ellipse 28" cx="1.176" cy="1.176" rx="1.176" ry="1.176" transform="translate(50.567 35.279)" fill="#12356a"/>
        <ellipse id="Ellipse_29" data-name="Ellipse 29" cx="1.176" cy="1.176" rx="1.176" ry="1.176" transform="translate(43.511 31.751)" fill="#12356a"/>
        <ellipse id="Ellipse_30" data-name="Ellipse 30" cx="1.176" cy="1.176" rx="1.176" ry="1.176" transform="translate(45.863 35.279)" fill="#12356a"/>
        <ellipse id="Ellipse_31" data-name="Ellipse 31" cx="1.176" cy="1.176" rx="1.176" ry="1.176" transform="translate(38.807 31.751)" fill="#12356a"/>
        <ellipse id="Ellipse_32" data-name="Ellipse 32" cx="1.176" cy="1.176" rx="1.176" ry="1.176" transform="translate(41.159 35.279)" fill="#12356a"/>
        <path id="Path_5640" data-name="Path 5640" d="M117.665,844.016a5.292,5.292,0,1,0-5.292-5.292A5.3,5.3,0,0,0,117.665,844.016Zm0-8.232a2.94,2.94,0,1,1-2.94,2.94A2.943,2.943,0,0,1,117.665,835.784Z" transform="translate(-105.317 -781.689)" fill="#12356a"/>
        <ellipse id="Ellipse_33" data-name="Ellipse 33" cx="1.176" cy="1.176" rx="1.176" ry="1.176" transform="translate(57.623 54.095)" fill="#12356a"/>
        <ellipse id="Ellipse_34" data-name="Ellipse 34" cx="1.176" cy="1.176" rx="1.176" ry="1.176" transform="translate(52.919 54.095)" fill="#12356a"/>
        <ellipse id="Ellipse_35" data-name="Ellipse 35" cx="1.176" cy="1.176" rx="1.176" ry="1.176" transform="translate(59.975 57.623)" fill="#12356a"/>
        <ellipse id="Ellipse_36" data-name="Ellipse 36" cx="1.176" cy="1.176" rx="1.176" ry="1.176" transform="translate(55.271 57.623)" fill="#12356a"/>
        <ellipse id="Ellipse_37" data-name="Ellipse 37" cx="1.176" cy="1.176" rx="1.176" ry="1.176" transform="translate(48.215 54.095)" fill="#12356a"/>
        <ellipse id="Ellipse_38" data-name="Ellipse 38" cx="1.176" cy="1.176" rx="1.176" ry="1.176" transform="translate(50.567 57.623)" fill="#12356a"/>
        <ellipse id="Ellipse_39" data-name="Ellipse 39" cx="1.176" cy="1.176" rx="1.176" ry="1.176" transform="translate(43.511 54.095)" fill="#12356a"/>
        <ellipse id="Ellipse_40" data-name="Ellipse 40" cx="1.176" cy="1.176" rx="1.176" ry="1.176" transform="translate(45.863 57.623)" fill="#12356a"/>
        <ellipse id="Ellipse_41" data-name="Ellipse 41" cx="1.176" cy="1.176" rx="1.176" ry="1.176" transform="translate(38.807 54.095)" fill="#12356a"/>
        <ellipse id="Ellipse_42" data-name="Ellipse 42" cx="1.176" cy="1.176" rx="1.176" ry="1.176" transform="translate(41.159 57.623)" fill="#12356a"/>
      </g>
    </g>
  </g>
</svg>
