<svg xmlns="http://www.w3.org/2000/svg" width="27.702" height="15.688" viewBox="0 0 27.702 15.688">
  <path id="forward" d="M0,118.849a1.082,1.082,0,0,1,1.082-1.082h17.1v-4.653a2.116,2.116,0,0,1,3.608-1.494l4.958,4.929a3.242,3.242,0,0,1,0,4.6l-4.958,4.929a2.116,2.116,0,0,1-3.608-1.492v-1.19a1.082,1.082,0,0,1,2.164,0v1.066l4.875-4.847a1.078,1.078,0,0,0,0-1.529l-4.875-4.847v4.53a2.164,2.164,0,0,1-2.164,2.164H1.082A1.082,1.082,0,0,1,0,118.849Z" transform="translate(0 -111.004)" fill="#12356a"/>
</svg>
