<svg xmlns="http://www.w3.org/2000/svg" width="26.422" height="26.422" viewBox="0 0 26.422 26.422"><defs><style>.a{fill:#12356a;}</style></defs><path class="a" d="M22.551,0H3.87A3.875,3.875,0,0,0,0,3.87V22.551a3.875,3.875,0,0,0,3.87,3.87H22.551a3.875,3.875,0,0,0,3.87-3.87V3.87A3.875,3.875,0,0,0,22.551,0ZM9.34,20.952h-3.1V10.115h3.1Zm0-12.385h-3.1V5.47h3.1ZM20.177,20.952h-3.1V14.759a1.548,1.548,0,1,0-3.1,0v6.193h-3.1V10.115h3.1V10.7a6.712,6.712,0,0,1,2.322-.584,4.052,4.052,0,0,1,3.87,4.112Zm0,0"/></svg>