<svg xmlns="http://www.w3.org/2000/svg" width="125.952" height="38.557" viewBox="0 0 125.952 38.557"><defs><style>.a{fill:#1f62f2;}.b{fill:#232b39;}</style></defs><path class="a" d="M35.674,30.906a.933.933,0,1,1-.933-.932A.951.951,0,0,1,35.674,30.906Z" transform="translate(-18.508 -17.138)"/><path class="a" d="M47.376,30.906a.933.933,0,1,0-.933.932A.926.926,0,0,0,47.376,30.906Z" transform="translate(-22.69 -17.138)"/><path class="a" d="M41.688,43.965a8.957,8.957,0,0,0,6.28-2.546l.018-.018.053-.053A7.686,7.686,0,0,0,49.6,33.17,6.117,6.117,0,0,0,41.633,29.8a4.894,4.894,0,0,0-2.71,6.384,1.044,1.044,0,0,0,1.364.574,1.029,1.029,0,0,0,.574-1.344,2.85,2.85,0,0,1,1.561-3.677,4.053,4.053,0,0,1,5.257,2.224,5.615,5.615,0,0,1-1.131,5.935l-.036.036A6.932,6.932,0,0,1,36.1,30.837c.054-.071.3-.341.521-.591a27.694,27.694,0,0,0,2.8-3.462,12.644,12.644,0,0,0,1.794-6.258,9.689,9.689,0,0,0-.826-3.963c.179-.771.735-2.941,1.256-4.9a1.045,1.045,0,0,0-1.22-1.291c-1.938.412-4.109.861-4.88.987A11.662,11.662,0,0,0,30.041,10c-6.155,0-11.16,4.717-11.16,10.526a12.768,12.768,0,0,0,1.794,6.258,26.277,26.277,0,0,0,2.781,3.444c.215.252.467.538.521.591a6.932,6.932,0,0,1-10.39,9.111v-.018l-.018-.036a5.628,5.628,0,0,1-1.094-5.954,3.975,3.975,0,0,1,2.172-2.205,4.087,4.087,0,0,1,3.086-.036,2.836,2.836,0,0,1,1.561,3.677,1.046,1.046,0,0,0,1.938.788,4.914,4.914,0,0,0-2.71-6.384,6.117,6.117,0,0,0-7.967,3.372,7.752,7.752,0,0,0,1.49,8.124l.018.036a.237.237,0,0,1,.053.071,9.016,9.016,0,0,0,15.305-5.882,9.146,9.146,0,0,0-1.758-5.954c-.089-.126-.252-.3-.628-.735A27.645,27.645,0,0,1,22.5,25.673,10.677,10.677,0,0,1,21,20.455c0-4.662,4.074-8.447,9.079-8.447a9.584,9.584,0,0,1,4.772,1.255,1.171,1.171,0,0,0,.556.144c.449-.018,2.279-.377,3.84-.717-.412,1.578-.9,3.425-.934,3.8a1.18,1.18,0,0,0,.089.556,7.944,7.944,0,0,1,.771,3.389,10.663,10.663,0,0,1-1.508,5.218,30.125,30.125,0,0,1-2.548,3.121c-.377.412-.538.609-.628.717a9.011,9.011,0,0,0,.771,11.692A8.73,8.73,0,0,0,41.688,43.965Z" transform="translate(-10 -10)"/><path class="a" d="M40.026,38.272c1.381,0,1.956-.556,1.956-.861,0-.323-.252-.376-.556-.376H38.215c-.323,0-.574.053-.574.376s.611.861,1.956.861Z" transform="translate(-19.878 -19.662)"/><path class="a" d="M44.825,64.276a1.04,1.04,0,1,0,0-2.08,9.6,9.6,0,0,1-5.6-2.17c-1.076-.843-2.87-2.619-2.87-5a1.041,1.041,0,0,0-1.041-1.04h-.036a1.042,1.042,0,0,0-1.041,1.04c0,2.386-1.794,4.161-2.87,5a9.77,9.77,0,0,1-5.6,2.17,1.04,1.04,0,1,0,0,2.08,11.693,11.693,0,0,0,6.891-2.6A10.441,10.441,0,0,0,35.3,58.7a10.481,10.481,0,0,0,2.637,2.977A11.65,11.65,0,0,0,44.825,64.276Z" transform="translate(-15.264 -25.719)"/><path class="b" d="M94.786,32.087v10.67H92.617V35.313l-2.772,7.444H87.956l-2.772-7.414v7.414H83V32.087h2.648l3.283,8.026,3.221-8.026Z" transform="translate(-36.089 -17.894)"/><path class="b" d="M109.352,35.852a2.75,2.75,0,0,1,1.1,1.361V35.455h2.168v8.468h-2.168V42.151a2.784,2.784,0,0,1-1.1,1.368,3.3,3.3,0,0,1-1.858.513,3.721,3.721,0,0,1-1.951-.52,3.509,3.509,0,0,1-1.355-1.506,5.737,5.737,0,0,1,0-4.632,3.529,3.529,0,0,1,1.355-1.506,3.718,3.718,0,0,1,1.951-.52A3.329,3.329,0,0,1,109.352,35.852Zm-2.819,2.033a2.524,2.524,0,0,0-.619,1.8,2.5,2.5,0,0,0,.619,1.8,2.368,2.368,0,0,0,3.275-.015,2.811,2.811,0,0,0,0-3.578,2.357,2.357,0,0,0-3.275-.007Z" transform="translate(-43.487 -19.059)"/><path class="b" d="M127.7,36.092a3.858,3.858,0,0,1,.883,2.706V43.72h-2.168V39.043a2.2,2.2,0,0,0-.527-1.567,1.885,1.885,0,0,0-1.44-.557,1.933,1.933,0,0,0-1.486.6,2.42,2.42,0,0,0-.557,1.713v4.494h-2.184V35.253H122.4v1.7a2.711,2.711,0,0,1,1.122-1.338,3.365,3.365,0,0,1,1.8-.482A3.054,3.054,0,0,1,127.7,36.092Z" transform="translate(-49.39 -18.981)"/><path class="b" d="M136.082,35.348,138.42,41.1l2.168-5.747h2.4l-5.25,12.5h-2.416l1.936-4.28-3.608-8.224Z" transform="translate(-54.191 -19.059)"/><path class="b" d="M157.516,32.694a4.9,4.9,0,0,1,1.78,2.827H157a2.975,2.975,0,0,0-1.107-1.376,3.156,3.156,0,0,0-1.8-.5,2.93,2.93,0,0,0-1.564.427,2.869,2.869,0,0,0-1.084,1.222,4.23,4.23,0,0,0-.387,1.865,4.165,4.165,0,0,0,.387,1.85,2.869,2.869,0,0,0,1.084,1.222,2.932,2.932,0,0,0,1.564.427,3.156,3.156,0,0,0,1.8-.5A2.967,2.967,0,0,0,157,38.775H159.3a4.906,4.906,0,0,1-1.78,2.827,5.955,5.955,0,0,1-6.155.344A4.768,4.768,0,0,1,149.5,40a6.5,6.5,0,0,1,0-5.7,4.78,4.78,0,0,1,1.851-1.949,5.961,5.961,0,0,1,6.162.346Z" transform="translate(-59.621 -17.738)"/><path class="b" d="M174.822,34.682a3.858,3.858,0,0,1,.883,2.706v4.923h-2.168V37.634a2.2,2.2,0,0,0-.526-1.567,1.886,1.886,0,0,0-1.441-.557,1.932,1.932,0,0,0-1.486.6,2.421,2.421,0,0,0-.558,1.713v4.494h-2.184V31h2.184v4.54a2.711,2.711,0,0,1,1.122-1.338,3.368,3.368,0,0,1,1.8-.482A3.061,3.061,0,0,1,174.822,34.682Z" transform="translate(-66.232 -17.505)"/><path class="b" d="M187.97,35.852a2.75,2.75,0,0,1,1.1,1.361V35.455h2.168v8.468h-2.168V42.151a2.784,2.784,0,0,1-1.1,1.368,3.3,3.3,0,0,1-1.858.513,3.725,3.725,0,0,1-1.952-.52,3.508,3.508,0,0,1-1.354-1.506,5.737,5.737,0,0,1,0-4.632,3.528,3.528,0,0,1,1.354-1.506,3.722,3.722,0,0,1,1.952-.52A3.326,3.326,0,0,1,187.97,35.852Zm-2.818,2.033a2.524,2.524,0,0,0-.62,1.8,2.5,2.5,0,0,0,.62,1.8,2.367,2.367,0,0,0,3.274-.015,2.811,2.811,0,0,0,0-3.578,2.356,2.356,0,0,0-3.274-.007Z" transform="translate(-71.584 -19.059)"/><path class="b" d="M203.045,42.651H201.9a3.2,3.2,0,0,1-2.206-.687,2.954,2.954,0,0,1-.767-2.292V36h-1.193V34.181h1.193V32.087h2.184v2.094h1.921V36h-1.921v3.7a1.181,1.181,0,0,0,.248.856,1.165,1.165,0,0,0,.836.244h.852Z" transform="translate(-77.093 -17.894)"/></svg>