<svg xmlns="http://www.w3.org/2000/svg" xmlns:xlink="http://www.w3.org/1999/xlink" width="206" height="186" viewBox="0 0 206 186">
  <defs>
    <clipPath id="clip-path">
      <rect width="206" height="186" fill="none"/>
    </clipPath>
  </defs>
  <g id="Repeat_Grid_4" data-name="Repeat Grid 4" clip-path="url(#clip-path)">
    <g transform="translate(-137 -1674)">
      <path id="Path_6192" data-name="Path 6192" d="M1.5,0A1.5,1.5,0,1,1,0,1.5,1.5,1.5,0,0,1,1.5,0Z" transform="translate(137 1674)" fill="rgba(5,56,107,0.83)"/>
    </g>
    <g transform="translate(-120 -1674)">
      <path id="Path_6192-2" data-name="Path 6192" d="M1.5,0A1.5,1.5,0,1,1,0,1.5,1.5,1.5,0,0,1,1.5,0Z" transform="translate(137 1674)" fill="rgba(5,56,107,0.83)"/>
    </g>
    <g transform="translate(-103 -1674)">
      <path id="Path_6192-3" data-name="Path 6192" d="M1.5,0A1.5,1.5,0,1,1,0,1.5,1.5,1.5,0,0,1,1.5,0Z" transform="translate(137 1674)" fill="rgba(5,56,107,0.83)"/>
    </g>
    <g transform="translate(-86 -1674)">
      <path id="Path_6192-4" data-name="Path 6192" d="M1.5,0A1.5,1.5,0,1,1,0,1.5,1.5,1.5,0,0,1,1.5,0Z" transform="translate(137 1674)" fill="rgba(5,56,107,0.83)"/>
    </g>
    <g transform="translate(-69 -1674)">
      <path id="Path_6192-5" data-name="Path 6192" d="M1.5,0A1.5,1.5,0,1,1,0,1.5,1.5,1.5,0,0,1,1.5,0Z" transform="translate(137 1674)" fill="rgba(5,56,107,0.83)"/>
    </g>
    <g transform="translate(-52 -1674)">
      <path id="Path_6192-6" data-name="Path 6192" d="M1.5,0A1.5,1.5,0,1,1,0,1.5,1.5,1.5,0,0,1,1.5,0Z" transform="translate(137 1674)" fill="rgba(5,56,107,0.83)"/>
    </g>
    <g transform="translate(-35 -1674)">
      <path id="Path_6192-7" data-name="Path 6192" d="M1.5,0A1.5,1.5,0,1,1,0,1.5,1.5,1.5,0,0,1,1.5,0Z" transform="translate(137 1674)" fill="rgba(5,56,107,0.83)"/>
    </g>
    <g transform="translate(-18 -1674)">
      <path id="Path_6192-8" data-name="Path 6192" d="M1.5,0A1.5,1.5,0,1,1,0,1.5,1.5,1.5,0,0,1,1.5,0Z" transform="translate(137 1674)" fill="rgba(5,56,107,0.83)"/>
    </g>
    <g transform="translate(-1 -1674)">
      <path id="Path_6192-9" data-name="Path 6192" d="M1.5,0A1.5,1.5,0,1,1,0,1.5,1.5,1.5,0,0,1,1.5,0Z" transform="translate(137 1674)" fill="rgba(5,56,107,0.83)"/>
    </g>
    <g transform="translate(16 -1674)">
      <path id="Path_6192-10" data-name="Path 6192" d="M1.5,0A1.5,1.5,0,1,1,0,1.5,1.5,1.5,0,0,1,1.5,0Z" transform="translate(137 1674)" fill="rgba(5,56,107,0.83)"/>
    </g>
    <g transform="translate(33 -1674)">
      <path id="Path_6192-11" data-name="Path 6192" d="M1.5,0A1.5,1.5,0,1,1,0,1.5,1.5,1.5,0,0,1,1.5,0Z" transform="translate(137 1674)" fill="rgba(5,56,107,0.83)"/>
    </g>
    <g transform="translate(50 -1674)">
      <path id="Path_6192-12" data-name="Path 6192" d="M1.5,0A1.5,1.5,0,1,1,0,1.5,1.5,1.5,0,0,1,1.5,0Z" transform="translate(137 1674)" fill="rgba(5,56,107,0.83)"/>
    </g>
    <g transform="translate(67 -1674)">
      <path id="Path_6192-13" data-name="Path 6192" d="M1.5,0A1.5,1.5,0,1,1,0,1.5,1.5,1.5,0,0,1,1.5,0Z" transform="translate(137 1674)" fill="rgba(5,56,107,0.83)"/>
    </g>
    <g transform="translate(-137 -1657)">
      <path id="Path_6192-14" data-name="Path 6192" d="M1.5,0A1.5,1.5,0,1,1,0,1.5,1.5,1.5,0,0,1,1.5,0Z" transform="translate(137 1674)" fill="rgba(5,56,107,0.83)"/>
    </g>
    <g transform="translate(-120 -1657)">
      <path id="Path_6192-15" data-name="Path 6192" d="M1.5,0A1.5,1.5,0,1,1,0,1.5,1.5,1.5,0,0,1,1.5,0Z" transform="translate(137 1674)" fill="rgba(5,56,107,0.83)"/>
    </g>
    <g transform="translate(-103 -1657)">
      <path id="Path_6192-16" data-name="Path 6192" d="M1.5,0A1.5,1.5,0,1,1,0,1.5,1.5,1.5,0,0,1,1.5,0Z" transform="translate(137 1674)" fill="rgba(5,56,107,0.83)"/>
    </g>
    <g transform="translate(-86 -1657)">
      <path id="Path_6192-17" data-name="Path 6192" d="M1.5,0A1.5,1.5,0,1,1,0,1.5,1.5,1.5,0,0,1,1.5,0Z" transform="translate(137 1674)" fill="rgba(5,56,107,0.83)"/>
    </g>
    <g transform="translate(-69 -1657)">
      <path id="Path_6192-18" data-name="Path 6192" d="M1.5,0A1.5,1.5,0,1,1,0,1.5,1.5,1.5,0,0,1,1.5,0Z" transform="translate(137 1674)" fill="rgba(5,56,107,0.83)"/>
    </g>
    <g transform="translate(-52 -1657)">
      <path id="Path_6192-19" data-name="Path 6192" d="M1.5,0A1.5,1.5,0,1,1,0,1.5,1.5,1.5,0,0,1,1.5,0Z" transform="translate(137 1674)" fill="rgba(5,56,107,0.83)"/>
    </g>
    <g transform="translate(-35 -1657)">
      <path id="Path_6192-20" data-name="Path 6192" d="M1.5,0A1.5,1.5,0,1,1,0,1.5,1.5,1.5,0,0,1,1.5,0Z" transform="translate(137 1674)" fill="rgba(5,56,107,0.83)"/>
    </g>
    <g transform="translate(-18 -1657)">
      <path id="Path_6192-21" data-name="Path 6192" d="M1.5,0A1.5,1.5,0,1,1,0,1.5,1.5,1.5,0,0,1,1.5,0Z" transform="translate(137 1674)" fill="rgba(5,56,107,0.83)"/>
    </g>
    <g transform="translate(-1 -1657)">
      <path id="Path_6192-22" data-name="Path 6192" d="M1.5,0A1.5,1.5,0,1,1,0,1.5,1.5,1.5,0,0,1,1.5,0Z" transform="translate(137 1674)" fill="rgba(5,56,107,0.83)"/>
    </g>
    <g transform="translate(16 -1657)">
      <path id="Path_6192-23" data-name="Path 6192" d="M1.5,0A1.5,1.5,0,1,1,0,1.5,1.5,1.5,0,0,1,1.5,0Z" transform="translate(137 1674)" fill="rgba(5,56,107,0.83)"/>
    </g>
    <g transform="translate(33 -1657)">
      <path id="Path_6192-24" data-name="Path 6192" d="M1.5,0A1.5,1.5,0,1,1,0,1.5,1.5,1.5,0,0,1,1.5,0Z" transform="translate(137 1674)" fill="rgba(5,56,107,0.83)"/>
    </g>
    <g transform="translate(50 -1657)">
      <path id="Path_6192-25" data-name="Path 6192" d="M1.5,0A1.5,1.5,0,1,1,0,1.5,1.5,1.5,0,0,1,1.5,0Z" transform="translate(137 1674)" fill="rgba(5,56,107,0.83)"/>
    </g>
    <g transform="translate(67 -1657)">
      <path id="Path_6192-26" data-name="Path 6192" d="M1.5,0A1.5,1.5,0,1,1,0,1.5,1.5,1.5,0,0,1,1.5,0Z" transform="translate(137 1674)" fill="rgba(5,56,107,0.83)"/>
    </g>
    <g transform="translate(-137 -1640)">
      <path id="Path_6192-27" data-name="Path 6192" d="M1.5,0A1.5,1.5,0,1,1,0,1.5,1.5,1.5,0,0,1,1.5,0Z" transform="translate(137 1674)" fill="rgba(5,56,107,0.83)"/>
    </g>
    <g transform="translate(-120 -1640)">
      <path id="Path_6192-28" data-name="Path 6192" d="M1.5,0A1.5,1.5,0,1,1,0,1.5,1.5,1.5,0,0,1,1.5,0Z" transform="translate(137 1674)" fill="rgba(5,56,107,0.83)"/>
    </g>
    <g transform="translate(-103 -1640)">
      <path id="Path_6192-29" data-name="Path 6192" d="M1.5,0A1.5,1.5,0,1,1,0,1.5,1.5,1.5,0,0,1,1.5,0Z" transform="translate(137 1674)" fill="rgba(5,56,107,0.83)"/>
    </g>
    <g transform="translate(-86 -1640)">
      <path id="Path_6192-30" data-name="Path 6192" d="M1.5,0A1.5,1.5,0,1,1,0,1.5,1.5,1.5,0,0,1,1.5,0Z" transform="translate(137 1674)" fill="rgba(5,56,107,0.83)"/>
    </g>
    <g transform="translate(-69 -1640)">
      <path id="Path_6192-31" data-name="Path 6192" d="M1.5,0A1.5,1.5,0,1,1,0,1.5,1.5,1.5,0,0,1,1.5,0Z" transform="translate(137 1674)" fill="rgba(5,56,107,0.83)"/>
    </g>
    <g transform="translate(-52 -1640)">
      <path id="Path_6192-32" data-name="Path 6192" d="M1.5,0A1.5,1.5,0,1,1,0,1.5,1.5,1.5,0,0,1,1.5,0Z" transform="translate(137 1674)" fill="rgba(5,56,107,0.83)"/>
    </g>
    <g transform="translate(-35 -1640)">
      <path id="Path_6192-33" data-name="Path 6192" d="M1.5,0A1.5,1.5,0,1,1,0,1.5,1.5,1.5,0,0,1,1.5,0Z" transform="translate(137 1674)" fill="rgba(5,56,107,0.83)"/>
    </g>
    <g transform="translate(-18 -1640)">
      <path id="Path_6192-34" data-name="Path 6192" d="M1.5,0A1.5,1.5,0,1,1,0,1.5,1.5,1.5,0,0,1,1.5,0Z" transform="translate(137 1674)" fill="rgba(5,56,107,0.83)"/>
    </g>
    <g transform="translate(-1 -1640)">
      <path id="Path_6192-35" data-name="Path 6192" d="M1.5,0A1.5,1.5,0,1,1,0,1.5,1.5,1.5,0,0,1,1.5,0Z" transform="translate(137 1674)" fill="rgba(5,56,107,0.83)"/>
    </g>
    <g transform="translate(16 -1640)">
      <path id="Path_6192-36" data-name="Path 6192" d="M1.5,0A1.5,1.5,0,1,1,0,1.5,1.5,1.5,0,0,1,1.5,0Z" transform="translate(137 1674)" fill="rgba(5,56,107,0.83)"/>
    </g>
    <g transform="translate(33 -1640)">
      <path id="Path_6192-37" data-name="Path 6192" d="M1.5,0A1.5,1.5,0,1,1,0,1.5,1.5,1.5,0,0,1,1.5,0Z" transform="translate(137 1674)" fill="rgba(5,56,107,0.83)"/>
    </g>
    <g transform="translate(50 -1640)">
      <path id="Path_6192-38" data-name="Path 6192" d="M1.5,0A1.5,1.5,0,1,1,0,1.5,1.5,1.5,0,0,1,1.5,0Z" transform="translate(137 1674)" fill="rgba(5,56,107,0.83)"/>
    </g>
    <g transform="translate(67 -1640)">
      <path id="Path_6192-39" data-name="Path 6192" d="M1.5,0A1.5,1.5,0,1,1,0,1.5,1.5,1.5,0,0,1,1.5,0Z" transform="translate(137 1674)" fill="rgba(5,56,107,0.83)"/>
    </g>
    <g transform="translate(-137 -1623)">
      <path id="Path_6192-40" data-name="Path 6192" d="M1.5,0A1.5,1.5,0,1,1,0,1.5,1.5,1.5,0,0,1,1.5,0Z" transform="translate(137 1674)" fill="rgba(5,56,107,0.83)"/>
    </g>
    <g transform="translate(-120 -1623)">
      <path id="Path_6192-41" data-name="Path 6192" d="M1.5,0A1.5,1.5,0,1,1,0,1.5,1.5,1.5,0,0,1,1.5,0Z" transform="translate(137 1674)" fill="rgba(5,56,107,0.83)"/>
    </g>
    <g transform="translate(-103 -1623)">
      <path id="Path_6192-42" data-name="Path 6192" d="M1.5,0A1.5,1.5,0,1,1,0,1.5,1.5,1.5,0,0,1,1.5,0Z" transform="translate(137 1674)" fill="rgba(5,56,107,0.83)"/>
    </g>
    <g transform="translate(-86 -1623)">
      <path id="Path_6192-43" data-name="Path 6192" d="M1.5,0A1.5,1.5,0,1,1,0,1.5,1.5,1.5,0,0,1,1.5,0Z" transform="translate(137 1674)" fill="rgba(5,56,107,0.83)"/>
    </g>
    <g transform="translate(-69 -1623)">
      <path id="Path_6192-44" data-name="Path 6192" d="M1.5,0A1.5,1.5,0,1,1,0,1.5,1.5,1.5,0,0,1,1.5,0Z" transform="translate(137 1674)" fill="rgba(5,56,107,0.83)"/>
    </g>
    <g transform="translate(-52 -1623)">
      <path id="Path_6192-45" data-name="Path 6192" d="M1.5,0A1.5,1.5,0,1,1,0,1.5,1.5,1.5,0,0,1,1.5,0Z" transform="translate(137 1674)" fill="rgba(5,56,107,0.83)"/>
    </g>
    <g transform="translate(-35 -1623)">
      <path id="Path_6192-46" data-name="Path 6192" d="M1.5,0A1.5,1.5,0,1,1,0,1.5,1.5,1.5,0,0,1,1.5,0Z" transform="translate(137 1674)" fill="rgba(5,56,107,0.83)"/>
    </g>
    <g transform="translate(-18 -1623)">
      <path id="Path_6192-47" data-name="Path 6192" d="M1.5,0A1.5,1.5,0,1,1,0,1.5,1.5,1.5,0,0,1,1.5,0Z" transform="translate(137 1674)" fill="rgba(5,56,107,0.83)"/>
    </g>
    <g transform="translate(-1 -1623)">
      <path id="Path_6192-48" data-name="Path 6192" d="M1.5,0A1.5,1.5,0,1,1,0,1.5,1.5,1.5,0,0,1,1.5,0Z" transform="translate(137 1674)" fill="rgba(5,56,107,0.83)"/>
    </g>
    <g transform="translate(16 -1623)">
      <path id="Path_6192-49" data-name="Path 6192" d="M1.5,0A1.5,1.5,0,1,1,0,1.5,1.5,1.5,0,0,1,1.5,0Z" transform="translate(137 1674)" fill="rgba(5,56,107,0.83)"/>
    </g>
    <g transform="translate(33 -1623)">
      <path id="Path_6192-50" data-name="Path 6192" d="M1.5,0A1.5,1.5,0,1,1,0,1.5,1.5,1.5,0,0,1,1.5,0Z" transform="translate(137 1674)" fill="rgba(5,56,107,0.83)"/>
    </g>
    <g transform="translate(50 -1623)">
      <path id="Path_6192-51" data-name="Path 6192" d="M1.5,0A1.5,1.5,0,1,1,0,1.5,1.5,1.5,0,0,1,1.5,0Z" transform="translate(137 1674)" fill="rgba(5,56,107,0.83)"/>
    </g>
    <g transform="translate(67 -1623)">
      <path id="Path_6192-52" data-name="Path 6192" d="M1.5,0A1.5,1.5,0,1,1,0,1.5,1.5,1.5,0,0,1,1.5,0Z" transform="translate(137 1674)" fill="rgba(5,56,107,0.83)"/>
    </g>
    <g transform="translate(-137 -1606)">
      <path id="Path_6192-53" data-name="Path 6192" d="M1.5,0A1.5,1.5,0,1,1,0,1.5,1.5,1.5,0,0,1,1.5,0Z" transform="translate(137 1674)" fill="rgba(5,56,107,0.83)"/>
    </g>
    <g transform="translate(-120 -1606)">
      <path id="Path_6192-54" data-name="Path 6192" d="M1.5,0A1.5,1.5,0,1,1,0,1.5,1.5,1.5,0,0,1,1.5,0Z" transform="translate(137 1674)" fill="rgba(5,56,107,0.83)"/>
    </g>
    <g transform="translate(-103 -1606)">
      <path id="Path_6192-55" data-name="Path 6192" d="M1.5,0A1.5,1.5,0,1,1,0,1.5,1.5,1.5,0,0,1,1.5,0Z" transform="translate(137 1674)" fill="rgba(5,56,107,0.83)"/>
    </g>
    <g transform="translate(-86 -1606)">
      <path id="Path_6192-56" data-name="Path 6192" d="M1.5,0A1.5,1.5,0,1,1,0,1.5,1.5,1.5,0,0,1,1.5,0Z" transform="translate(137 1674)" fill="rgba(5,56,107,0.83)"/>
    </g>
    <g transform="translate(-69 -1606)">
      <path id="Path_6192-57" data-name="Path 6192" d="M1.5,0A1.5,1.5,0,1,1,0,1.5,1.5,1.5,0,0,1,1.5,0Z" transform="translate(137 1674)" fill="rgba(5,56,107,0.83)"/>
    </g>
    <g transform="translate(-52 -1606)">
      <path id="Path_6192-58" data-name="Path 6192" d="M1.5,0A1.5,1.5,0,1,1,0,1.5,1.5,1.5,0,0,1,1.5,0Z" transform="translate(137 1674)" fill="rgba(5,56,107,0.83)"/>
    </g>
    <g transform="translate(-35 -1606)">
      <path id="Path_6192-59" data-name="Path 6192" d="M1.5,0A1.5,1.5,0,1,1,0,1.5,1.5,1.5,0,0,1,1.5,0Z" transform="translate(137 1674)" fill="rgba(5,56,107,0.83)"/>
    </g>
    <g transform="translate(-18 -1606)">
      <path id="Path_6192-60" data-name="Path 6192" d="M1.5,0A1.5,1.5,0,1,1,0,1.5,1.5,1.5,0,0,1,1.5,0Z" transform="translate(137 1674)" fill="rgba(5,56,107,0.83)"/>
    </g>
    <g transform="translate(-1 -1606)">
      <path id="Path_6192-61" data-name="Path 6192" d="M1.5,0A1.5,1.5,0,1,1,0,1.5,1.5,1.5,0,0,1,1.5,0Z" transform="translate(137 1674)" fill="rgba(5,56,107,0.83)"/>
    </g>
    <g transform="translate(16 -1606)">
      <path id="Path_6192-62" data-name="Path 6192" d="M1.5,0A1.5,1.5,0,1,1,0,1.5,1.5,1.5,0,0,1,1.5,0Z" transform="translate(137 1674)" fill="rgba(5,56,107,0.83)"/>
    </g>
    <g transform="translate(33 -1606)">
      <path id="Path_6192-63" data-name="Path 6192" d="M1.5,0A1.5,1.5,0,1,1,0,1.5,1.5,1.5,0,0,1,1.5,0Z" transform="translate(137 1674)" fill="rgba(5,56,107,0.83)"/>
    </g>
    <g transform="translate(50 -1606)">
      <path id="Path_6192-64" data-name="Path 6192" d="M1.5,0A1.5,1.5,0,1,1,0,1.5,1.5,1.5,0,0,1,1.5,0Z" transform="translate(137 1674)" fill="rgba(5,56,107,0.83)"/>
    </g>
    <g transform="translate(67 -1606)">
      <path id="Path_6192-65" data-name="Path 6192" d="M1.5,0A1.5,1.5,0,1,1,0,1.5,1.5,1.5,0,0,1,1.5,0Z" transform="translate(137 1674)" fill="rgba(5,56,107,0.83)"/>
    </g>
    <g transform="translate(-137 -1589)">
      <path id="Path_6192-66" data-name="Path 6192" d="M1.5,0A1.5,1.5,0,1,1,0,1.5,1.5,1.5,0,0,1,1.5,0Z" transform="translate(137 1674)" fill="rgba(5,56,107,0.83)"/>
    </g>
    <g transform="translate(-120 -1589)">
      <path id="Path_6192-67" data-name="Path 6192" d="M1.5,0A1.5,1.5,0,1,1,0,1.5,1.5,1.5,0,0,1,1.5,0Z" transform="translate(137 1674)" fill="rgba(5,56,107,0.83)"/>
    </g>
    <g transform="translate(-103 -1589)">
      <path id="Path_6192-68" data-name="Path 6192" d="M1.5,0A1.5,1.5,0,1,1,0,1.5,1.5,1.5,0,0,1,1.5,0Z" transform="translate(137 1674)" fill="rgba(5,56,107,0.83)"/>
    </g>
    <g transform="translate(-86 -1589)">
      <path id="Path_6192-69" data-name="Path 6192" d="M1.5,0A1.5,1.5,0,1,1,0,1.5,1.5,1.5,0,0,1,1.5,0Z" transform="translate(137 1674)" fill="rgba(5,56,107,0.83)"/>
    </g>
    <g transform="translate(-69 -1589)">
      <path id="Path_6192-70" data-name="Path 6192" d="M1.5,0A1.5,1.5,0,1,1,0,1.5,1.5,1.5,0,0,1,1.5,0Z" transform="translate(137 1674)" fill="rgba(5,56,107,0.83)"/>
    </g>
    <g transform="translate(-52 -1589)">
      <path id="Path_6192-71" data-name="Path 6192" d="M1.5,0A1.5,1.5,0,1,1,0,1.5,1.5,1.5,0,0,1,1.5,0Z" transform="translate(137 1674)" fill="rgba(5,56,107,0.83)"/>
    </g>
    <g transform="translate(-35 -1589)">
      <path id="Path_6192-72" data-name="Path 6192" d="M1.5,0A1.5,1.5,0,1,1,0,1.5,1.5,1.5,0,0,1,1.5,0Z" transform="translate(137 1674)" fill="rgba(5,56,107,0.83)"/>
    </g>
    <g transform="translate(-18 -1589)">
      <path id="Path_6192-73" data-name="Path 6192" d="M1.5,0A1.5,1.5,0,1,1,0,1.5,1.5,1.5,0,0,1,1.5,0Z" transform="translate(137 1674)" fill="rgba(5,56,107,0.83)"/>
    </g>
    <g transform="translate(-1 -1589)">
      <path id="Path_6192-74" data-name="Path 6192" d="M1.5,0A1.5,1.5,0,1,1,0,1.5,1.5,1.5,0,0,1,1.5,0Z" transform="translate(137 1674)" fill="rgba(5,56,107,0.83)"/>
    </g>
    <g transform="translate(16 -1589)">
      <path id="Path_6192-75" data-name="Path 6192" d="M1.5,0A1.5,1.5,0,1,1,0,1.5,1.5,1.5,0,0,1,1.5,0Z" transform="translate(137 1674)" fill="rgba(5,56,107,0.83)"/>
    </g>
    <g transform="translate(33 -1589)">
      <path id="Path_6192-76" data-name="Path 6192" d="M1.5,0A1.5,1.5,0,1,1,0,1.5,1.5,1.5,0,0,1,1.5,0Z" transform="translate(137 1674)" fill="rgba(5,56,107,0.83)"/>
    </g>
    <g transform="translate(50 -1589)">
      <path id="Path_6192-77" data-name="Path 6192" d="M1.5,0A1.5,1.5,0,1,1,0,1.5,1.5,1.5,0,0,1,1.5,0Z" transform="translate(137 1674)" fill="rgba(5,56,107,0.83)"/>
    </g>
    <g transform="translate(67 -1589)">
      <path id="Path_6192-78" data-name="Path 6192" d="M1.5,0A1.5,1.5,0,1,1,0,1.5,1.5,1.5,0,0,1,1.5,0Z" transform="translate(137 1674)" fill="rgba(5,56,107,0.83)"/>
    </g>
    <g transform="translate(-137 -1572)">
      <path id="Path_6192-79" data-name="Path 6192" d="M1.5,0A1.5,1.5,0,1,1,0,1.5,1.5,1.5,0,0,1,1.5,0Z" transform="translate(137 1674)" fill="rgba(5,56,107,0.83)"/>
    </g>
    <g transform="translate(-120 -1572)">
      <path id="Path_6192-80" data-name="Path 6192" d="M1.5,0A1.5,1.5,0,1,1,0,1.5,1.5,1.5,0,0,1,1.5,0Z" transform="translate(137 1674)" fill="rgba(5,56,107,0.83)"/>
    </g>
    <g transform="translate(-103 -1572)">
      <path id="Path_6192-81" data-name="Path 6192" d="M1.5,0A1.5,1.5,0,1,1,0,1.5,1.5,1.5,0,0,1,1.5,0Z" transform="translate(137 1674)" fill="rgba(5,56,107,0.83)"/>
    </g>
    <g transform="translate(-86 -1572)">
      <path id="Path_6192-82" data-name="Path 6192" d="M1.5,0A1.5,1.5,0,1,1,0,1.5,1.5,1.5,0,0,1,1.5,0Z" transform="translate(137 1674)" fill="rgba(5,56,107,0.83)"/>
    </g>
    <g transform="translate(-69 -1572)">
      <path id="Path_6192-83" data-name="Path 6192" d="M1.5,0A1.5,1.5,0,1,1,0,1.5,1.5,1.5,0,0,1,1.5,0Z" transform="translate(137 1674)" fill="rgba(5,56,107,0.83)"/>
    </g>
    <g transform="translate(-52 -1572)">
      <path id="Path_6192-84" data-name="Path 6192" d="M1.5,0A1.5,1.5,0,1,1,0,1.5,1.5,1.5,0,0,1,1.5,0Z" transform="translate(137 1674)" fill="rgba(5,56,107,0.83)"/>
    </g>
    <g transform="translate(-35 -1572)">
      <path id="Path_6192-85" data-name="Path 6192" d="M1.5,0A1.5,1.5,0,1,1,0,1.5,1.5,1.5,0,0,1,1.5,0Z" transform="translate(137 1674)" fill="rgba(5,56,107,0.83)"/>
    </g>
    <g transform="translate(-18 -1572)">
      <path id="Path_6192-86" data-name="Path 6192" d="M1.5,0A1.5,1.5,0,1,1,0,1.5,1.5,1.5,0,0,1,1.5,0Z" transform="translate(137 1674)" fill="rgba(5,56,107,0.83)"/>
    </g>
    <g transform="translate(-1 -1572)">
      <path id="Path_6192-87" data-name="Path 6192" d="M1.5,0A1.5,1.5,0,1,1,0,1.5,1.5,1.5,0,0,1,1.5,0Z" transform="translate(137 1674)" fill="rgba(5,56,107,0.83)"/>
    </g>
    <g transform="translate(16 -1572)">
      <path id="Path_6192-88" data-name="Path 6192" d="M1.5,0A1.5,1.5,0,1,1,0,1.5,1.5,1.5,0,0,1,1.5,0Z" transform="translate(137 1674)" fill="rgba(5,56,107,0.83)"/>
    </g>
    <g transform="translate(33 -1572)">
      <path id="Path_6192-89" data-name="Path 6192" d="M1.5,0A1.5,1.5,0,1,1,0,1.5,1.5,1.5,0,0,1,1.5,0Z" transform="translate(137 1674)" fill="rgba(5,56,107,0.83)"/>
    </g>
    <g transform="translate(50 -1572)">
      <path id="Path_6192-90" data-name="Path 6192" d="M1.5,0A1.5,1.5,0,1,1,0,1.5,1.5,1.5,0,0,1,1.5,0Z" transform="translate(137 1674)" fill="rgba(5,56,107,0.83)"/>
    </g>
    <g transform="translate(67 -1572)">
      <path id="Path_6192-91" data-name="Path 6192" d="M1.5,0A1.5,1.5,0,1,1,0,1.5,1.5,1.5,0,0,1,1.5,0Z" transform="translate(137 1674)" fill="rgba(5,56,107,0.83)"/>
    </g>
    <g transform="translate(-137 -1555)">
      <path id="Path_6192-92" data-name="Path 6192" d="M1.5,0A1.5,1.5,0,1,1,0,1.5,1.5,1.5,0,0,1,1.5,0Z" transform="translate(137 1674)" fill="rgba(5,56,107,0.83)"/>
    </g>
    <g transform="translate(-120 -1555)">
      <path id="Path_6192-93" data-name="Path 6192" d="M1.5,0A1.5,1.5,0,1,1,0,1.5,1.5,1.5,0,0,1,1.5,0Z" transform="translate(137 1674)" fill="rgba(5,56,107,0.83)"/>
    </g>
    <g transform="translate(-103 -1555)">
      <path id="Path_6192-94" data-name="Path 6192" d="M1.5,0A1.5,1.5,0,1,1,0,1.5,1.5,1.5,0,0,1,1.5,0Z" transform="translate(137 1674)" fill="rgba(5,56,107,0.83)"/>
    </g>
    <g transform="translate(-86 -1555)">
      <path id="Path_6192-95" data-name="Path 6192" d="M1.5,0A1.5,1.5,0,1,1,0,1.5,1.5,1.5,0,0,1,1.5,0Z" transform="translate(137 1674)" fill="rgba(5,56,107,0.83)"/>
    </g>
    <g transform="translate(-69 -1555)">
      <path id="Path_6192-96" data-name="Path 6192" d="M1.5,0A1.5,1.5,0,1,1,0,1.5,1.5,1.5,0,0,1,1.5,0Z" transform="translate(137 1674)" fill="rgba(5,56,107,0.83)"/>
    </g>
    <g transform="translate(-52 -1555)">
      <path id="Path_6192-97" data-name="Path 6192" d="M1.5,0A1.5,1.5,0,1,1,0,1.5,1.5,1.5,0,0,1,1.5,0Z" transform="translate(137 1674)" fill="rgba(5,56,107,0.83)"/>
    </g>
    <g transform="translate(-35 -1555)">
      <path id="Path_6192-98" data-name="Path 6192" d="M1.5,0A1.5,1.5,0,1,1,0,1.5,1.5,1.5,0,0,1,1.5,0Z" transform="translate(137 1674)" fill="rgba(5,56,107,0.83)"/>
    </g>
    <g transform="translate(-18 -1555)">
      <path id="Path_6192-99" data-name="Path 6192" d="M1.5,0A1.5,1.5,0,1,1,0,1.5,1.5,1.5,0,0,1,1.5,0Z" transform="translate(137 1674)" fill="rgba(5,56,107,0.83)"/>
    </g>
    <g transform="translate(-1 -1555)">
      <path id="Path_6192-100" data-name="Path 6192" d="M1.5,0A1.5,1.5,0,1,1,0,1.5,1.5,1.5,0,0,1,1.5,0Z" transform="translate(137 1674)" fill="rgba(5,56,107,0.83)"/>
    </g>
    <g transform="translate(16 -1555)">
      <path id="Path_6192-101" data-name="Path 6192" d="M1.5,0A1.5,1.5,0,1,1,0,1.5,1.5,1.5,0,0,1,1.5,0Z" transform="translate(137 1674)" fill="rgba(5,56,107,0.83)"/>
    </g>
    <g transform="translate(33 -1555)">
      <path id="Path_6192-102" data-name="Path 6192" d="M1.5,0A1.5,1.5,0,1,1,0,1.5,1.5,1.5,0,0,1,1.5,0Z" transform="translate(137 1674)" fill="rgba(5,56,107,0.83)"/>
    </g>
    <g transform="translate(50 -1555)">
      <path id="Path_6192-103" data-name="Path 6192" d="M1.5,0A1.5,1.5,0,1,1,0,1.5,1.5,1.5,0,0,1,1.5,0Z" transform="translate(137 1674)" fill="rgba(5,56,107,0.83)"/>
    </g>
    <g transform="translate(67 -1555)">
      <path id="Path_6192-104" data-name="Path 6192" d="M1.5,0A1.5,1.5,0,1,1,0,1.5,1.5,1.5,0,0,1,1.5,0Z" transform="translate(137 1674)" fill="rgba(5,56,107,0.83)"/>
    </g>
    <g transform="translate(-137 -1538)">
      <path id="Path_6192-105" data-name="Path 6192" d="M1.5,0A1.5,1.5,0,1,1,0,1.5,1.5,1.5,0,0,1,1.5,0Z" transform="translate(137 1674)" fill="rgba(5,56,107,0.83)"/>
    </g>
    <g transform="translate(-120 -1538)">
      <path id="Path_6192-106" data-name="Path 6192" d="M1.5,0A1.5,1.5,0,1,1,0,1.5,1.5,1.5,0,0,1,1.5,0Z" transform="translate(137 1674)" fill="rgba(5,56,107,0.83)"/>
    </g>
    <g transform="translate(-103 -1538)">
      <path id="Path_6192-107" data-name="Path 6192" d="M1.5,0A1.5,1.5,0,1,1,0,1.5,1.5,1.5,0,0,1,1.5,0Z" transform="translate(137 1674)" fill="rgba(5,56,107,0.83)"/>
    </g>
    <g transform="translate(-86 -1538)">
      <path id="Path_6192-108" data-name="Path 6192" d="M1.5,0A1.5,1.5,0,1,1,0,1.5,1.5,1.5,0,0,1,1.5,0Z" transform="translate(137 1674)" fill="rgba(5,56,107,0.83)"/>
    </g>
    <g transform="translate(-69 -1538)">
      <path id="Path_6192-109" data-name="Path 6192" d="M1.5,0A1.5,1.5,0,1,1,0,1.5,1.5,1.5,0,0,1,1.5,0Z" transform="translate(137 1674)" fill="rgba(5,56,107,0.83)"/>
    </g>
    <g transform="translate(-52 -1538)">
      <path id="Path_6192-110" data-name="Path 6192" d="M1.5,0A1.5,1.5,0,1,1,0,1.5,1.5,1.5,0,0,1,1.5,0Z" transform="translate(137 1674)" fill="rgba(5,56,107,0.83)"/>
    </g>
    <g transform="translate(-35 -1538)">
      <path id="Path_6192-111" data-name="Path 6192" d="M1.5,0A1.5,1.5,0,1,1,0,1.5,1.5,1.5,0,0,1,1.5,0Z" transform="translate(137 1674)" fill="rgba(5,56,107,0.83)"/>
    </g>
    <g transform="translate(-18 -1538)">
      <path id="Path_6192-112" data-name="Path 6192" d="M1.5,0A1.5,1.5,0,1,1,0,1.5,1.5,1.5,0,0,1,1.5,0Z" transform="translate(137 1674)" fill="rgba(5,56,107,0.83)"/>
    </g>
    <g transform="translate(-1 -1538)">
      <path id="Path_6192-113" data-name="Path 6192" d="M1.5,0A1.5,1.5,0,1,1,0,1.5,1.5,1.5,0,0,1,1.5,0Z" transform="translate(137 1674)" fill="rgba(5,56,107,0.83)"/>
    </g>
    <g transform="translate(16 -1538)">
      <path id="Path_6192-114" data-name="Path 6192" d="M1.5,0A1.5,1.5,0,1,1,0,1.5,1.5,1.5,0,0,1,1.5,0Z" transform="translate(137 1674)" fill="rgba(5,56,107,0.83)"/>
    </g>
    <g transform="translate(33 -1538)">
      <path id="Path_6192-115" data-name="Path 6192" d="M1.5,0A1.5,1.5,0,1,1,0,1.5,1.5,1.5,0,0,1,1.5,0Z" transform="translate(137 1674)" fill="rgba(5,56,107,0.83)"/>
    </g>
    <g transform="translate(50 -1538)">
      <path id="Path_6192-116" data-name="Path 6192" d="M1.5,0A1.5,1.5,0,1,1,0,1.5,1.5,1.5,0,0,1,1.5,0Z" transform="translate(137 1674)" fill="rgba(5,56,107,0.83)"/>
    </g>
    <g transform="translate(67 -1538)">
      <path id="Path_6192-117" data-name="Path 6192" d="M1.5,0A1.5,1.5,0,1,1,0,1.5,1.5,1.5,0,0,1,1.5,0Z" transform="translate(137 1674)" fill="rgba(5,56,107,0.83)"/>
    </g>
    <g transform="translate(-137 -1521)">
      <path id="Path_6192-118" data-name="Path 6192" d="M1.5,0A1.5,1.5,0,1,1,0,1.5,1.5,1.5,0,0,1,1.5,0Z" transform="translate(137 1674)" fill="rgba(5,56,107,0.83)"/>
    </g>
    <g transform="translate(-120 -1521)">
      <path id="Path_6192-119" data-name="Path 6192" d="M1.5,0A1.5,1.5,0,1,1,0,1.5,1.5,1.5,0,0,1,1.5,0Z" transform="translate(137 1674)" fill="rgba(5,56,107,0.83)"/>
    </g>
    <g transform="translate(-103 -1521)">
      <path id="Path_6192-120" data-name="Path 6192" d="M1.5,0A1.5,1.5,0,1,1,0,1.5,1.5,1.5,0,0,1,1.5,0Z" transform="translate(137 1674)" fill="rgba(5,56,107,0.83)"/>
    </g>
    <g transform="translate(-86 -1521)">
      <path id="Path_6192-121" data-name="Path 6192" d="M1.5,0A1.5,1.5,0,1,1,0,1.5,1.5,1.5,0,0,1,1.5,0Z" transform="translate(137 1674)" fill="rgba(5,56,107,0.83)"/>
    </g>
    <g transform="translate(-69 -1521)">
      <path id="Path_6192-122" data-name="Path 6192" d="M1.5,0A1.5,1.5,0,1,1,0,1.5,1.5,1.5,0,0,1,1.5,0Z" transform="translate(137 1674)" fill="rgba(5,56,107,0.83)"/>
    </g>
    <g transform="translate(-52 -1521)">
      <path id="Path_6192-123" data-name="Path 6192" d="M1.5,0A1.5,1.5,0,1,1,0,1.5,1.5,1.5,0,0,1,1.5,0Z" transform="translate(137 1674)" fill="rgba(5,56,107,0.83)"/>
    </g>
    <g transform="translate(-35 -1521)">
      <path id="Path_6192-124" data-name="Path 6192" d="M1.5,0A1.5,1.5,0,1,1,0,1.5,1.5,1.5,0,0,1,1.5,0Z" transform="translate(137 1674)" fill="rgba(5,56,107,0.83)"/>
    </g>
    <g transform="translate(-18 -1521)">
      <path id="Path_6192-125" data-name="Path 6192" d="M1.5,0A1.5,1.5,0,1,1,0,1.5,1.5,1.5,0,0,1,1.5,0Z" transform="translate(137 1674)" fill="rgba(5,56,107,0.83)"/>
    </g>
    <g transform="translate(-1 -1521)">
      <path id="Path_6192-126" data-name="Path 6192" d="M1.5,0A1.5,1.5,0,1,1,0,1.5,1.5,1.5,0,0,1,1.5,0Z" transform="translate(137 1674)" fill="rgba(5,56,107,0.83)"/>
    </g>
    <g transform="translate(16 -1521)">
      <path id="Path_6192-127" data-name="Path 6192" d="M1.5,0A1.5,1.5,0,1,1,0,1.5,1.5,1.5,0,0,1,1.5,0Z" transform="translate(137 1674)" fill="rgba(5,56,107,0.83)"/>
    </g>
    <g transform="translate(33 -1521)">
      <path id="Path_6192-128" data-name="Path 6192" d="M1.5,0A1.5,1.5,0,1,1,0,1.5,1.5,1.5,0,0,1,1.5,0Z" transform="translate(137 1674)" fill="rgba(5,56,107,0.83)"/>
    </g>
    <g transform="translate(50 -1521)">
      <path id="Path_6192-129" data-name="Path 6192" d="M1.5,0A1.5,1.5,0,1,1,0,1.5,1.5,1.5,0,0,1,1.5,0Z" transform="translate(137 1674)" fill="rgba(5,56,107,0.83)"/>
    </g>
    <g transform="translate(67 -1521)">
      <path id="Path_6192-130" data-name="Path 6192" d="M1.5,0A1.5,1.5,0,1,1,0,1.5,1.5,1.5,0,0,1,1.5,0Z" transform="translate(137 1674)" fill="rgba(5,56,107,0.83)"/>
    </g>
    <g transform="translate(-137 -1504)">
      <path id="Path_6192-131" data-name="Path 6192" d="M1.5,0A1.5,1.5,0,1,1,0,1.5,1.5,1.5,0,0,1,1.5,0Z" transform="translate(137 1674)" fill="rgba(5,56,107,0.83)"/>
    </g>
    <g transform="translate(-120 -1504)">
      <path id="Path_6192-132" data-name="Path 6192" d="M1.5,0A1.5,1.5,0,1,1,0,1.5,1.5,1.5,0,0,1,1.5,0Z" transform="translate(137 1674)" fill="rgba(5,56,107,0.83)"/>
    </g>
    <g transform="translate(-103 -1504)">
      <path id="Path_6192-133" data-name="Path 6192" d="M1.5,0A1.5,1.5,0,1,1,0,1.5,1.5,1.5,0,0,1,1.5,0Z" transform="translate(137 1674)" fill="rgba(5,56,107,0.83)"/>
    </g>
    <g transform="translate(-86 -1504)">
      <path id="Path_6192-134" data-name="Path 6192" d="M1.5,0A1.5,1.5,0,1,1,0,1.5,1.5,1.5,0,0,1,1.5,0Z" transform="translate(137 1674)" fill="rgba(5,56,107,0.83)"/>
    </g>
    <g transform="translate(-69 -1504)">
      <path id="Path_6192-135" data-name="Path 6192" d="M1.5,0A1.5,1.5,0,1,1,0,1.5,1.5,1.5,0,0,1,1.5,0Z" transform="translate(137 1674)" fill="rgba(5,56,107,0.83)"/>
    </g>
    <g transform="translate(-52 -1504)">
      <path id="Path_6192-136" data-name="Path 6192" d="M1.5,0A1.5,1.5,0,1,1,0,1.5,1.5,1.5,0,0,1,1.5,0Z" transform="translate(137 1674)" fill="rgba(5,56,107,0.83)"/>
    </g>
    <g transform="translate(-35 -1504)">
      <path id="Path_6192-137" data-name="Path 6192" d="M1.5,0A1.5,1.5,0,1,1,0,1.5,1.5,1.5,0,0,1,1.5,0Z" transform="translate(137 1674)" fill="rgba(5,56,107,0.83)"/>
    </g>
    <g transform="translate(-18 -1504)">
      <path id="Path_6192-138" data-name="Path 6192" d="M1.5,0A1.5,1.5,0,1,1,0,1.5,1.5,1.5,0,0,1,1.5,0Z" transform="translate(137 1674)" fill="rgba(5,56,107,0.83)"/>
    </g>
    <g transform="translate(-1 -1504)">
      <path id="Path_6192-139" data-name="Path 6192" d="M1.5,0A1.5,1.5,0,1,1,0,1.5,1.5,1.5,0,0,1,1.5,0Z" transform="translate(137 1674)" fill="rgba(5,56,107,0.83)"/>
    </g>
    <g transform="translate(16 -1504)">
      <path id="Path_6192-140" data-name="Path 6192" d="M1.5,0A1.5,1.5,0,1,1,0,1.5,1.5,1.5,0,0,1,1.5,0Z" transform="translate(137 1674)" fill="rgba(5,56,107,0.83)"/>
    </g>
    <g transform="translate(33 -1504)">
      <path id="Path_6192-141" data-name="Path 6192" d="M1.5,0A1.5,1.5,0,1,1,0,1.5,1.5,1.5,0,0,1,1.5,0Z" transform="translate(137 1674)" fill="rgba(5,56,107,0.83)"/>
    </g>
    <g transform="translate(50 -1504)">
      <path id="Path_6192-142" data-name="Path 6192" d="M1.5,0A1.5,1.5,0,1,1,0,1.5,1.5,1.5,0,0,1,1.5,0Z" transform="translate(137 1674)" fill="rgba(5,56,107,0.83)"/>
    </g>
    <g transform="translate(67 -1504)">
      <path id="Path_6192-143" data-name="Path 6192" d="M1.5,0A1.5,1.5,0,1,1,0,1.5,1.5,1.5,0,0,1,1.5,0Z" transform="translate(137 1674)" fill="rgba(5,56,107,0.83)"/>
    </g>
  </g>
</svg>
