<svg xmlns="http://www.w3.org/2000/svg" width="32.283" height="26.422" viewBox="0 0 32.283 26.422"><defs><style>.a{fill:#12356a;}</style></defs><path class="a" d="M12.044,26.422a27.7,27.7,0,0,1-4.278-.34,20.08,20.08,0,0,1-5.853-2.13L0,22.907l2.071-.681c2.264-.744,3.641-1.206,5.345-1.929a7.111,7.111,0,0,1-3.656-4.236L3.279,14.6l.4.06a7.184,7.184,0,0,1-.9-1.109A6.811,6.811,0,0,1,1.619,9.5L1.71,8.224l.764.3a7.145,7.145,0,0,1-.692-1.941,7.385,7.385,0,0,1,.787-4.972L3.234.385l.89,1.069A16.386,16.386,0,0,0,14.74,7.431a6.349,6.349,0,0,1,.385-3.373,6.316,6.316,0,0,1,2.568-2.944,7.712,7.712,0,0,1,4.476-1.1,7.149,7.149,0,0,1,4.395,1.813,14.752,14.752,0,0,0,1.609-.537c.353-.133.753-.283,1.253-.456L31.27.2l-1.2,3.435c.079-.007.161-.012.247-.016l1.969-.089L31.119,5.12c-.067.091-.084.117-.107.153-.094.141-.211.317-1.808,2.451a3.009,3.009,0,0,0-.563,1.96,18.535,18.535,0,0,1-1.012,7.455,13.192,13.192,0,0,1-3.541,5.246,15.641,15.641,0,0,1-7.414,3.584A22.824,22.824,0,0,1,12.044,26.422Zm0,0" transform="translate(0 -0.001)"/></svg>