<svg xmlns="http://www.w3.org/2000/svg" width="48.904" height="48.904" viewBox="0 0 48.904 48.904"><defs><style>.a{fill:#12356a;}</style></defs><g transform="translate(0)"><g transform="translate(0 0)"><path class="a" d="M41.742,7.162a24.452,24.452,0,1,0-34.58,34.58,24.452,24.452,0,1,0,34.58-34.58Zm-18.8-4.078v8.974A12.51,12.51,0,0,0,12.058,22.937H3.084A21.454,21.454,0,0,1,22.937,3.084Zm-7.82,19.853a9.479,9.479,0,0,1,7.82-7.82v7.82Zm7.82,3.029v7.82a9.479,9.479,0,0,1-7.82-7.82h7.82Zm0,19.853A21.454,21.454,0,0,1,3.084,25.967h8.974A12.51,12.51,0,0,0,22.937,36.845V45.82ZM25.966,3.084A21.454,21.454,0,0,1,45.82,22.937H36.845A12.51,12.51,0,0,0,25.966,12.058V3.084Zm0,19.853v-7.82a9.479,9.479,0,0,1,7.82,7.82Zm7.82,3.029a9.479,9.479,0,0,1-7.82,7.82v-7.82h7.82ZM25.966,45.82V36.846A12.511,12.511,0,0,0,36.846,25.967H45.82A21.455,21.455,0,0,1,25.966,45.82Z" transform="translate(0 0)"/></g></g></svg>