<svg id="Group_2640" data-name="Group 2640" xmlns="http://www.w3.org/2000/svg" width="67.651" height="69.384" viewBox="0 0 67.651 69.384">
  <rect id="Rectangle_177" data-name="Rectangle 177" width="45.327" height="45.327" rx="10" transform="translate(35.601 0) rotate(45)" fill="#00d9ac" opacity="0.36"/>
  <g id="Group_181" data-name="Group 181" transform="translate(0 14.576)">
    <g id="Group_180" data-name="Group 180" transform="translate(0 0)">
      <g id="Group_179" data-name="Group 179">
        <path id="Path_568" data-name="Path 568" d="M6018.849,779.3h-29.687a5.716,5.716,0,0,1-5.709-5.709V734.764a1.138,1.138,0,0,1,.334-.807l9.135-9.135a1.143,1.143,0,0,1,.807-.334h25.121a5.716,5.716,0,0,1,5.709,5.709v25.12h-2.283V730.2a3.425,3.425,0,0,0-3.426-3.426H5994.2l-8.466,8.465v38.35a3.425,3.425,0,0,0,3.426,3.426h29.688a3.425,3.425,0,0,0,3.426-3.426V771.3h2.283v2.284a5.716,5.716,0,0,1-5.709,5.709Z" transform="translate(-5983.452 -724.487)" fill="#11356a"/>
        <g id="Group_178" data-name="Group 178" transform="translate(5.709 1.142)">
          <path id="Path_569" data-name="Path 569" d="M5997.857,737.188h-2.284V734.9h2.284a1.142,1.142,0,0,0,1.142-1.142v-6.851h2.284v6.851a3.426,3.426,0,0,1-3.426,3.426Z" transform="translate(-5995.573 -726.911)" fill="#11356a"/>
          <path id="Path_570" data-name="Path 570" d="M6054.089,793.931l1.547,1.547,15.777-15.777-1.547-1.547-15.777,15.777Zm1.547,4.3a1.142,1.142,0,0,1-.808-.334l-3.162-3.162a1.142,1.142,0,0,1,0-1.615l17.392-17.391a1.141,1.141,0,0,1,1.614,0l3.162,3.162a1.142,1.142,0,0,1,0,1.615L6056.443,797.9a1.138,1.138,0,0,1-.807.334Z" transform="translate(-6025.07 -752.561)" fill="#11356a"/>
        </g>
        <path id="Path_571" data-name="Path 571" d="M6055.9,818.753h-3.426a1.142,1.142,0,0,1-1.142-1.142v-3.426h2.285v2.284h2.283v2.283Z" transform="translate(-6019.361 -771.938)" fill="#11356a"/>
        <path id="Path_572" data-name="Path 572" d="M6054.617,739.893h-2.284V737.61a1.142,1.142,0,0,0-1.142-1.142h-2.283v-2.284h2.283a3.426,3.426,0,0,1,3.426,3.426v2.284Z" transform="translate(-6018.078 -729.617)" fill="#11356a"/>
        <path id="Path_573" data-name="Path 573" d="M6007.554,774.842l7.362,3.607a1.188,1.188,0,0,0,1.2.034l7.427-3.641V760.711h-15.986v14.131Zm8.01,6.079a3.463,3.463,0,0,1-1.712-.457l-7.941-3.882a1.143,1.143,0,0,1-.641-1.028V759.569a1.143,1.143,0,0,1,1.143-1.142h18.268a1.143,1.143,0,0,1,1.144,1.142v15.986a1.144,1.144,0,0,1-.64,1.028l-8,3.92a3.251,3.251,0,0,1-1.619.419Z" transform="translate(-5994.993 -742.441)" fill="#11356a"/>
        <path id="Path_574" data-name="Path 574" d="M6034.941,817.471h-6.851a3.425,3.425,0,0,1-3.425-3.425v-2.284h2.283v2.284a1.142,1.142,0,0,0,1.142,1.142h6.851v2.283Z" transform="translate(-6005.254 -770.656)" fill="#11356a"/>
        <path id="Path_575" data-name="Path 575" d="M6039.21,734.184h2.284v2.284h-2.284v-2.284Z" transform="translate(-6012.948 -729.617)" fill="#11356a"/>
      </g>
      <text id="x" transform="translate(15.74 29.612)" fill="#11356a" font-size="20" font-family="SegoeUI, Segoe UI" letter-spacing="-0.033em"><tspan x="0" y="0">x</tspan></text>
    </g>
  </g>
</svg>
