<svg xmlns="http://www.w3.org/2000/svg" width="62" height="60" viewBox="0 0 62 60"><defs><style>.a{fill:#5cdb95;}.b{fill:#fff;}</style></defs><path class="a" d="M63,54v6a3,3,0,0,1-3,3H44a3,3,0,0,1-3-3V54a3,3,0,0,1,3-3H60A3,3,0,0,1,63,54ZM17,54v6a3,3,0,0,0,3,3H36a3,3,0,0,0,3-3V54a3,3,0,0,0-3-3H20A3,3,0,0,0,17,54Zm31-5a3,3,0,0,0,3-3V40a3,3,0,0,0-3-3H32a3,3,0,0,0-3,3v6a3,3,0,0,0,3,3ZM60,23H44a3,3,0,0,0-3,3v6a3,3,0,0,0,3,3H60a3,3,0,0,0,3-3V26A3,3,0,0,0,60,23Zm0,14H56a3,3,0,0,0-3,3v6a3,3,0,0,0,3,3h4a3,3,0,0,0,3-3V40A3,3,0,0,0,60,37Z" transform="translate(-1 -3)"/><path class="b" d="M50,49H49V40a3,3,0,0,0-3-3H41a3,3,0,0,0-3,3,1,1,0,0,1-1,1H36a1,1,0,0,1-1-1V36a3,3,0,0,0-3-3H26a3,3,0,0,0-3,3V49H19V20.82A3,3,0,0,0,21,18V17H44v7.42a2.91,2.91,0,0,0,1.76,2.73A2,2,0,1,1,43,29a1,1,0,0,0-2,0,4,4,0,1,0,5.53-3.7.93.93,0,0,1-.53-.88V17a3,3,0,0,0,2.4-4.8L44.8,7.4A1.06,1.06,0,0,0,44,7H21V6a3,3,0,0,0-3-3H10A3,3,0,0,0,7,6V7H4a3,3,0,0,0-3,3v4a3,3,0,0,0,3,3H7v1a3,3,0,0,0,2,2.82V49H2a1,1,0,1,0,0,2H50a1,1,0,0,0,0-2ZM25,36a1,1,0,0,1,1-1h6a1,1,0,0,1,1,1v4a3,3,0,0,0,3,3h1a3,3,0,0,0,3-3,1,1,0,0,1,1-1h5a1,1,0,0,1,1,1v9H25ZM15,21l-4,3V21Zm2,1v8l-5.33-4Zm-6,6,5.33,4L11,36Zm6,6v8l-5.33-4Zm-.67,10L11,48V40ZM17,46v3H13Zm4-31V11l3,4Zm1-6h8l-4,5.33Zm6,6,4-5.33L36,15Zm6-6h8l-4,5.33Zm12,6H40l4-5.33,2.8,3.73A1,1,0,0,1,46,15ZM9,6a1,1,0,0,1,1-1h8a1,1,0,0,1,1,1V18a1,1,0,0,1-1,1H10a1,1,0,0,1-1-1ZM4,9H6L3,13V10A1,1,0,0,1,4,9Zm0,6,3-4v4ZM30,47H28a1,1,0,0,1,0-2h2a1,1,0,0,1,0,2Zm8,0H36a1,1,0,0,1,0-2h2a1,1,0,0,1,0,2Zm6,0H42a1,1,0,0,1,0-2h2a1,1,0,0,1,0,2Zm0-4H42a1,1,0,0,1,0-2h2a1,1,0,0,1,0,2ZM30,43H28a1,1,0,0,1,0-2h2a1,1,0,0,1,0,2Zm0-4H28a1,1,0,0,1,0-2h2a1,1,0,0,1,0,2Z" transform="translate(-1 -3)"/></svg>