<svg xmlns="http://www.w3.org/2000/svg" width="46.524" height="46.482" viewBox="0 0 46.524 46.482"><defs><style>.a{fill:#5cdb95;}.b{fill:#12356a;}</style></defs><path class="a" d="M26,30H49.25V43.5H26Z" transform="translate(-7.226 -8.268)"/><path class="a" d="M50,24H22.25A2.25,2.25,0,0,0,20,26.25V45a2.25,2.25,0,0,0,2.25,2.25H31.9l-.45,1.5H31.25a3,3,0,0,0-3,3v.75a.75.75,0,0,0,.75.75H44a.75.75,0,0,0,.75-.75v-.75a3,3,0,0,0-3-3h-.195l-.45-1.5H50A2.25,2.25,0,0,0,52.25,45V26.25A2.25,2.25,0,0,0,50,24ZM33.005,48.75l.45-1.5h6.09l.45,1.5Zm16.245-6a.75.75,0,0,1-.75.75H23.75a.75.75,0,0,1-.75-.75v-15a.75.75,0,0,1,.75-.75H48.5a.75.75,0,0,1,.75.75Z" transform="translate(-5.726 -6.768)"/><path class="b" d="M31.344,11.408h-.052v-.052a10.35,10.35,0,0,0-20.25-3,4.5,4.5,0,0,0-1.283-.187A4.755,4.755,0,0,0,5,12.916v.495A6.345,6.345,0,0,0,7.329,25.666h3.412v7.59a1.5,1.5,0,0,0,1.5,1.5h3a1.5,1.5,0,0,0,1.5-1.5V25.7h6v1.552h-.6a1.5,1.5,0,0,0-1.125,2.49l3.592,4.11a1.5,1.5,0,0,0,2.25,0l3.6-4.11a1.5,1.5,0,0,0-1.118-2.49h-.6V25.7h2.6a7.148,7.148,0,0,0,0-14.3Zm-16.1,21.847h-3V22.006a.75.75,0,0,0-.75-.75h-1.35l3.6-4.11,3.6,4.11h-1.35a.75.75,0,0,0-.75.75Zm14.1-4.5-3.6,4.11-3.6-4.11h1.35a.75.75,0,0,0,.75-.75V16.756h3v11.25a.75.75,0,0,0,.75.75Zm2-4.552h-2.6V16.756a1.5,1.5,0,0,0-1.5-1.5h-3a1.5,1.5,0,0,0-1.5,1.5V24.2h-6V22.756h.6a1.5,1.5,0,0,0,1.125-2.49l-3.593-4.11a1.545,1.545,0,0,0-2.25,0l-3.6,4.11a1.5,1.5,0,0,0,1.118,2.49h.6V24.2h-3.4a4.845,4.845,0,0,1-1.267-9.525.75.75,0,0,0,.532-.923,3.068,3.068,0,0,1-.12-.81A3.255,3.255,0,0,1,9.744,9.7a3.127,3.127,0,0,1,1.455.367.75.75,0,0,0,1.08-.517,8.85,8.85,0,0,1,17.513,1.808v.795a.75.75,0,0,0,.84.81,5.738,5.738,0,0,1,.75-.052,5.648,5.648,0,0,1,0,11.3Z" transform="translate(-0.968 -1.024)"/></svg>