<svg xmlns="http://www.w3.org/2000/svg" width="46.502" height="45.75" viewBox="0 0 46.502 45.75"><defs><style>.a{fill:#5cdb95;}.b{fill:#12356a;}</style></defs><g transform="translate(11.302 17.235)"><path class="a" d="M39.655,38.573a7.545,7.545,0,1,0-7.5,0A10.86,10.86,0,0,0,25,48.8v3.353a.84.84,0,0,0,.84.84H45.955a.84.84,0,0,0,.84-.84V48.8A10.868,10.868,0,0,0,39.655,38.573Z" transform="translate(-18.302 -24.481)"/><path class="a" d="M54.908,41.36a5.025,5.025,0,0,0-3.045-9,5.393,5.393,0,0,0-.983.1,9.135,9.135,0,0,1-2.25,7.77A12.525,12.525,0,0,1,54.375,50.8v1.68h4.192a.84.84,0,0,0,.84-.892V48.26a7.5,7.5,0,0,0-4.5-6.9Z" transform="translate(-24.21 -26.45)"/><path class="a" d="M26.84,40.195a9.135,9.135,0,0,1-2.25-7.77,5.392,5.392,0,0,0-.983-.105,5.025,5.025,0,0,0-3.038,9,7.538,7.538,0,0,0-4.5,6.9v3.36a.84.84,0,0,0,.84.84h4.185V50.762A12.533,12.533,0,0,1,26.84,40.195Z" transform="translate(-16.07 -26.44)"/></g><path class="b" d="M37.368,17.355l-.57.338A17.1,17.1,0,0,0,22.308,3.2l.338-.578A.75.75,0,0,0,22,1.5H17.5a.75.75,0,0,0-.645,1.125l.337.57A17.1,17.1,0,0,0,2.7,17.692l-.57-.337A.75.75,0,0,0,1,18v4.5a.75.75,0,0,0,1.133.645l.57-.338A17.1,17.1,0,0,0,17.193,37.3l-.338.57A.75.75,0,0,0,17.5,39H22a.75.75,0,0,0,.645-1.125l-.338-.57a17.1,17.1,0,0,0,14.49-14.5l.57.338A.75.75,0,0,0,38.5,22.5V18a.75.75,0,0,0-1.132-.645ZM20.673,3,19.75,4.545,18.828,3ZM2.5,19.327l1.545.923L2.5,21.173ZM18.828,37.5l.923-1.545.922,1.545Zm2.633-1.6L20.4,34.125a.75.75,0,0,0-1.29,0L18.04,35.9A15.63,15.63,0,0,1,4.105,21.96l1.778-1.065a.75.75,0,0,0,0-1.29L4.105,18.54A15.63,15.63,0,0,1,18.04,4.6l1.065,1.77a.75.75,0,0,0,1.29,0L21.46,4.6A15.63,15.63,0,0,1,35.4,18.54L33.618,19.6a.75.75,0,0,0,0,1.29L35.4,21.96A15.63,15.63,0,0,1,21.46,35.895ZM37,21.173l-1.545-.922L37,19.328Z" transform="translate(-1 -1.5)"/><path class="b" d="M22,10.5a12,12,0,1,0,12,12A12,12,0,0,0,22,10.5ZM22,33A10.5,10.5,0,1,1,32.5,22.5,10.5,10.5,0,0,1,22,33Z" transform="translate(-3.25 -3.75)"/><path class="b" d="M27.25,24.75h-1.5v-1.5a.75.75,0,0,0-1.5,0v1.5h-1.5a.75.75,0,0,0,0,1.5h1.5v1.5a.75.75,0,0,0,1.5,0v-1.5h1.5a.75.75,0,0,0,0-1.5Z" transform="translate(-6.25 -6.75)"/></svg>