<svg xmlns="http://www.w3.org/2000/svg" width="45.749" height="46.493" viewBox="0 0 45.749 46.493"><defs><style>.a{fill:#5cdb95;}.b{fill:#12356a;}</style></defs><path class="a" d="M44.443,42.011h2.4c.01-1.7.016-3.34.01-4.2C46.346,38.632,45.393,40.308,44.443,42.011Z" transform="translate(-12.238 -10.203)"/><path class="a" d="M36.25,21a15.75,15.75,0,0,0-7.43,1.869l-7.388-1.847a.75.75,0,0,0-.909.909l1.846,7.388A15.746,15.746,0,1,0,36.25,21ZM34.632,41.98c-1.241.015-2.147.022-2.813.022a8.011,8.011,0,0,1-1.932-.075.849.849,0,0,1-.516-.521c-.134-.431.05-.671.594-1.384.45-.588,1.286-1.683,2.687-3.686a5.011,5.011,0,0,0,.825-1.656l.024-.21a1.509,1.509,0,0,0-2.988-.256.75.75,0,1,1-1.472-.289A3.009,3.009,0,0,1,35,34.509a.825.825,0,0,1-.006.1l-.043.341a6.434,6.434,0,0,1-1.068,2.25c-1.13,1.614-1.9,2.647-2.395,3.3.86.007,2.03-.007,3.126-.02h.01a.75.75,0,1,1,.01,1.5Zm8.1-2.672h-.384c-.006.841-.012,1.526-.015,1.862a.75.75,0,0,1-.75.743h0a.75.75,0,0,1-.744-.757c.005-.562.011-1.193.015-1.849H37.184a.75.75,0,0,1-.657-1.112c.5-.9,2.993-5.41,3.494-6.025a1.289,1.289,0,0,1,1.42-.534,1.379,1.379,0,0,1,.907,1.248c.027.32.018,2.744.005,4.923h.375a.75.75,0,0,1,0,1.5Z" transform="translate(-6.252 -6)"/><path class="b" d="M31.61,34.015l-1.318-6.589A6.769,6.769,0,0,0,23.674,22h-3.5l-.366-1.463a8.434,8.434,0,0,0,3.383-5.287h2.4a1.5,1.5,0,0,0,1.5-1.5v-3a1.5,1.5,0,0,0-1.5-1.5h-.035C25.2,4.637,21.63,1,17.28,1H15.9c-4.35,0-7.923,3.637-8.277,8.25H7.592a1.5,1.5,0,0,0-1.5,1.5v3a1.5,1.5,0,0,0,.75,1.292V16a2.25,2.25,0,0,0,2.25,2.25h2.1a8.433,8.433,0,0,0,2.18,2.287L13.007,22h-3.5a6.768,6.768,0,0,0-6.619,5.426L1.576,34.015A3.75,3.75,0,0,0,5.251,38.5H27.933a3.75,3.75,0,0,0,3.677-4.485ZM11.342,10.75a5.25,5.25,0,1,1,10.5,0v.505l-2.013-.575A3.746,3.746,0,0,1,17.3,8.263a.75.75,0,0,0-1.425,0,3.746,3.746,0,0,1-2.525,2.417l-2.014.575Zm14.25,3h-2.25v-3h2.25ZM15.9,2.5H17.28c3.525,0,6.435,2.965,6.778,6.75h-.889a6.744,6.744,0,0,0-13.153,0H9.127C9.47,5.465,12.376,2.5,15.9,2.5ZM7.592,10.75h2.25v3H7.592Zm1.5,6a.75.75,0,0,1-.75-.75v-.75h1.65a8.377,8.377,0,0,0,.428,1.5Zm3.983,1.5h3.517a.75.75,0,0,0,0-1.5H12.055a6.832,6.832,0,0,1-.713-3.033v-.9l2.425-.693a5.244,5.244,0,0,0,2.825-1.99,5.25,5.25,0,0,0,2.825,1.991l2.425.693v.9a6.9,6.9,0,0,1-4.46,6.436,2.256,2.256,0,0,1-1.579,0A6.831,6.831,0,0,1,13.075,18.25Zm2.2,3.307a3.75,3.75,0,0,0,2.632,0h0c.189-.07.375-.15.554-.233l.3,1.2-2.17,2.17-2.17-2.17.3-1.2c.18.084.365.163.553.233ZM3.046,34.307l1.318-6.589A5.263,5.263,0,0,1,9.511,23.5h3.77l2.56,2.561V37H5.251a2.25,2.25,0,0,1-2.205-2.691ZM27.933,37H17.342V26.061L19.9,23.5h3.771a5.264,5.264,0,0,1,5.148,4.22l1.318,6.589A2.25,2.25,0,0,1,27.933,37Z" transform="translate(-1.503 -1)"/></svg>