<svg id="Group_2729" data-name="Group 2729" xmlns="http://www.w3.org/2000/svg" width="23.982" height="23.982" viewBox="0 0 23.982 23.982">
  <path id="Path_12279" data-name="Path 12279" d="M21.874,0a2.136,2.136,0,0,0-2.02,1.61H14.1V0H9.883V1.61H4.127A2.136,2.136,0,0,0,2.108,0,2.188,2.188,0,0,0,0,2.255,2.188,2.188,0,0,0,2.108,4.511a2.116,2.116,0,0,0,1.949-1.4H9.883v1.4H14.1v-1.4h5.827a2.116,2.116,0,0,0,1.949,1.4,2.188,2.188,0,0,0,2.108-2.255A2.188,2.188,0,0,0,21.874,0ZM2.108,3.007a.729.729,0,0,1-.7-.752.729.729,0,0,1,.7-.752.729.729,0,0,1,.7.752A.729.729,0,0,1,2.108,3.007Zm10.586,0H11.288V1.5h1.405Zm9.181,0a.729.729,0,0,1-.7-.752.7.7,0,1,1,1.405,0A.729.729,0,0,1,21.874,3.007Z" transform="translate(0)" fill="#12356a"/>
  <path id="Path_12280" data-name="Path 12280" d="M130.524,133.667l2.249-5.547-5.847-9.839-5.847,9.839,2.249,5.547A3.739,3.739,0,0,0,121,137.261v.752h11.853v-.752A3.739,3.739,0,0,0,130.524,133.667Zm-2.939-5.477a.664.664,0,1,1-.659-.752A.711.711,0,0,1,127.585,128.19Zm-1.317-6.123v4a2.26,2.26,0,0,0-1.317,2.126,1.993,1.993,0,1,0,3.951,0,2.26,2.26,0,0,0-1.317-2.126v-4l3.68,6.193L129.14,133.5h-4.426l-2.125-5.243Zm-3.838,14.443a2.016,2.016,0,0,1,1.863-1.5h5.268a2.016,2.016,0,0,1,1.863,1.5Z" transform="translate(-114.936 -114.031)" fill="#12356a"/>
</svg>
