<svg xmlns="http://www.w3.org/2000/svg" width="25.194" height="25.188" viewBox="0 0 25.194 25.188">
  <g id="dot" transform="translate(12.585 0.326) rotate(45)">
    <g id="Group_2523" data-name="Group 2523" transform="translate(0 0)">
      <g id="Group_2522" data-name="Group 2522">
        <path id="Path_12282" data-name="Path 12282" d="M1.465,0A1.465,1.465,0,1,0,2.931,1.465,1.467,1.467,0,0,0,1.465,0Zm0,2.373a.907.907,0,1,1,.907-.907A.908.908,0,0,1,1.465,2.373Z" transform="translate(0.039 0)" fill="#12356a" stroke="#12356a" stroke-width="0.5"/>
        <path id="Path_12283" data-name="Path 12283" d="M1.465,0A1.465,1.465,0,1,0,2.931,1.465,1.467,1.467,0,0,0,1.465,0Zm0,2.373a.907.907,0,1,1,.907-.907A.908.908,0,0,1,1.465,2.373Z" transform="translate(7.172 0)" fill="#12356a" stroke="#12356a" stroke-width="0.5"/>
        <path id="Path_12284" data-name="Path 12284" d="M1.465,2.931A1.465,1.465,0,1,0,0,1.465,1.467,1.467,0,0,0,1.465,2.931Zm0-2.373a.907.907,0,1,1-.907.907A.908.908,0,0,1,1.465.558Z" transform="translate(14.401 0)" fill="#12356a" stroke="#12356a" stroke-width="0.5"/>
        <path id="Path_12285" data-name="Path 12285" d="M1.465,2.931A1.465,1.465,0,1,0,0,1.465,1.467,1.467,0,0,0,1.465,2.931Zm0-2.373a.907.907,0,1,1-.907.907A.908.908,0,0,1,1.465.558Z" transform="translate(0 7.212)" fill="#12356a" stroke="#12356a" stroke-width="0.5"/>
        <path id="Path_12286" data-name="Path 12286" d="M1.465,2.931A1.465,1.465,0,1,0,0,1.465,1.467,1.467,0,0,0,1.465,2.931Zm0-2.373a.907.907,0,1,1-.907.907A.908.908,0,0,1,1.465.558Z" transform="translate(7.115 7.212)" fill="#12356a" stroke="#12356a" stroke-width="0.5"/>
        <path id="Path_12287" data-name="Path 12287" d="M1.465,2.931A1.465,1.465,0,1,0,0,1.465,1.467,1.467,0,0,0,1.465,2.931Zm0-2.373a.907.907,0,1,1-.907.907A.908.908,0,0,1,1.465.558Z" transform="translate(14.363 7.212)" fill="#12356a" stroke="#12356a" stroke-width="0.5"/>
        <path id="Path_12288" data-name="Path 12288" d="M1.465,0A1.465,1.465,0,1,0,2.931,1.465,1.467,1.467,0,0,0,1.465,0Zm0,2.373a.907.907,0,1,1,.907-.907A.908.908,0,0,1,1.465,2.373Z" transform="translate(0.034 14.401)" fill="#12356a" stroke="#12356a" stroke-width="0.5"/>
        <path id="Path_12289" data-name="Path 12289" d="M1.465,0A1.465,1.465,0,1,0,2.931,1.465,1.467,1.467,0,0,0,1.465,0Zm0,2.373a.907.907,0,1,1,.907-.907A.908.908,0,0,1,1.465,2.373Z" transform="translate(7.165 14.401)" fill="#12356a" stroke="#12356a" stroke-width="0.5"/>
        <path id="Path_12290" data-name="Path 12290" d="M1.465,0A1.465,1.465,0,1,0,2.931,1.465,1.467,1.467,0,0,0,1.465,0Zm0,2.373a.907.907,0,1,1,.907-.907A.908.908,0,0,1,1.465,2.373Z" transform="translate(14.397 14.401)" fill="#12356a" stroke="#12356a" stroke-width="0.5"/>
      </g>
    </g>
  </g>
</svg>
