<svg xmlns="http://www.w3.org/2000/svg" width="33.352" height="21.888" viewBox="0 0 33.352 21.888">
  <path id="Path_12340" data-name="Path 12340" d="M31.729,3.8a1.622,1.622,0,0,0-1.621,1.623,1.59,1.59,0,0,0,.095.53l-4.752,7.072L19.58,7.374a1.655,1.655,0,0,0,.032-.325A1.623,1.623,0,1,0,17.72,8.643l3.833,9.64L17.123,16.1c0-.051.015-.1.015-.154a1.623,1.623,0,1,0-2.7,1.208l-.86,5.323a1.609,1.609,0,0,0-.99.63L3.219,20.578A1.623,1.623,0,1,0,2.57,22.14l9.889,2.671A1.616,1.616,0,1,0,15.184,23.1l.91-5.631,5.583,2.748A1.619,1.619,0,1,0,23.4,18.39l-3.225-8.111,4.833,4.652a.825.825,0,0,0,.67.229.836.836,0,0,0,.607-.366l5.219-7.768a1.6,1.6,0,0,0,.223.023,1.623,1.623,0,1,0,0-3.245Z" transform="translate(0 -3.804)" fill="#12356a"/>
</svg>
