<svg id="Group_181" data-name="Group 181" xmlns="http://www.w3.org/2000/svg" width="55" height="55" viewBox="0 0 55 55">
  <g id="Group_180" data-name="Group 180" transform="translate(0 0)">
    <g id="Group_179" data-name="Group 179">
      <path id="Path_568" data-name="Path 568" d="M6019.014,779.487h-29.826a5.74,5.74,0,0,1-5.736-5.729V734.8a1.141,1.141,0,0,1,.335-.81l9.177-9.167a1.15,1.15,0,0,1,.811-.336h25.238a5.74,5.74,0,0,1,5.736,5.729v25.208h-2.294V730.216a3.439,3.439,0,0,0-3.442-3.438h-24.762l-8.505,8.495v38.484a3.439,3.439,0,0,0,3.442,3.438h29.826a3.439,3.439,0,0,0,3.442-3.438v-2.292h2.294v2.292a5.74,5.74,0,0,1-5.736,5.729Z" transform="translate(-5983.452 -724.487)" fill="#5cdb95"/>
      <g id="Group_178" data-name="Group 178" transform="translate(5.709 1.142)">
        <path id="Path_569" data-name="Path 569" d="M5997.857,737.188h-2.284V734.9h2.284a1.142,1.142,0,0,0,1.142-1.142v-6.851h2.284v6.851a3.426,3.426,0,0,1-3.426,3.426Z" transform="translate(-5995.573 -726.911)" fill="#5cdb95"/>
        <path id="Path_570" data-name="Path 570" d="M6054.089,793.931l1.547,1.547,15.777-15.776-1.547-1.547-15.777,15.776Zm1.547,4.3a1.142,1.142,0,0,1-.808-.334l-3.162-3.162a1.142,1.142,0,0,1,0-1.615l17.392-17.391a1.141,1.141,0,0,1,1.614,0l3.162,3.162a1.142,1.142,0,0,1,0,1.615L6056.443,797.9a1.138,1.138,0,0,1-.807.334Z" transform="translate(-6024.878 -752.369)" fill="#5cdb95"/>
      </g>
      <path id="Path_571" data-name="Path 571" d="M6055.9,818.753h-3.426a1.142,1.142,0,0,1-1.142-1.142v-3.426h2.285v2.284h2.283v2.283Z" transform="translate(-6019.239 -771.746)" fill="#5cdb95"/>
      <path id="Path_572" data-name="Path 572" d="M6054.617,739.893h-2.284v-2.284a1.142,1.142,0,0,0-1.142-1.142h-2.283v-2.284h2.283a3.426,3.426,0,0,1,3.426,3.425v2.284Z" transform="translate(-6017.958 -729.617)" fill="#5cdb95"/>
      <path id="Path_573" data-name="Path 573" d="M6007.554,774.842l7.362,3.607a1.188,1.188,0,0,0,1.2.034l7.427-3.641V760.711h-15.986v14.131Zm8.01,6.079a3.463,3.463,0,0,1-1.712-.457l-7.941-3.882a1.143,1.143,0,0,1-.641-1.028V759.569a1.143,1.143,0,0,1,1.143-1.142h18.268a1.143,1.143,0,0,1,1.144,1.142v15.985a1.144,1.144,0,0,1-.64,1.028l-8,3.92a3.251,3.251,0,0,1-1.619.419Z" transform="translate(-5994.935 -742.347)" fill="#5cdb95"/>
      <path id="Path_574" data-name="Path 574" d="M6034.941,817.471h-6.851a3.425,3.425,0,0,1-3.425-3.425v-2.284h2.283v2.284a1.142,1.142,0,0,0,1.142,1.142h6.851v2.283Z" transform="translate(-6005.17 -770.464)" fill="#5cdb95"/>
      <path id="Path_575" data-name="Path 575" d="M6039.21,734.184h2.284v2.284h-2.284v-2.284Z" transform="translate(-6012.852 -729.617)" fill="#5cdb95"/>
    </g>
    <text id="x" transform="translate(15.808 29.692)" fill="#5cdb95" font-size="20" font-family="Helvetica" letter-spacing="-0.033em"><tspan x="0" y="0">x</tspan></text>
  </g>
</svg>
