<svg xmlns="http://www.w3.org/2000/svg" xmlns:xlink="http://www.w3.org/1999/xlink" width="85.115" height="83.188" viewBox="0 0 85.115 83.188">
  <defs>
    <filter id="Rectangle_15" x="0" y="0.354" width="82.834" height="82.834" filterUnits="userSpaceOnUse">
      <feOffset dy="3" input="SourceAlpha"/>
      <feGaussianBlur stdDeviation="3" result="blur"/>
      <feFlood flood-opacity="0.161"/>
      <feComposite operator="in" in2="blur"/>
      <feComposite in="SourceGraphic"/>
    </filter>
  </defs>
  <g id="Group_2718" data-name="Group 2718" transform="translate(-939.496 -1232.964)">
    <g id="Group_2639" data-name="Group 2639" transform="translate(948.496 1232.964)">
      <g transform="matrix(1, 0, 0, 1, -9, 0)" filter="url(#Rectangle_15)">
        <rect id="Rectangle_15-2" data-name="Rectangle 15" width="45.844" height="45.844" rx="10" transform="translate(41.42 6.35) rotate(45)" fill="#00d9ac" opacity="0.36"/>
      </g>
      <g id="Group_69" data-name="Group 69" transform="translate(15.078 0)">
        <g id="Group_68" data-name="Group 68">
          <path id="Path_263" data-name="Path 263" d="M1160.14,543.555a9.611,9.611,0,1,0-9.61-9.611,9.622,9.622,0,0,0,9.61,9.611Zm0-17.273a7.663,7.663,0,1,1-7.663,7.663,7.671,7.671,0,0,1,7.663-7.663Zm0,0" transform="translate(-1129.621 -524.334)" fill="#11356a"/>
          <g id="Group_67" data-name="Group 67" transform="translate(0 21.169)">
            <path id="Path_264" data-name="Path 264" d="M1152.426,570.72a14.7,14.7,0,0,1,14.648,13.706h-22.509a.974.974,0,1,0,0,1.948h23.516a.974.974,0,0,0,.974-.974,16.628,16.628,0,1,0-33.256,0,.974.974,0,0,0,.974.974h3.9a.974.974,0,1,0,0-1.948h-2.89a14.7,14.7,0,0,1,14.648-13.706Zm0,0" transform="translate(-1121.908 -568.772)" fill="#11356a"/>
            <path id="Path_265" data-name="Path 265" d="M1124.874,620.46l-5.343-.9-2.5-4.8a.974.974,0,0,0-1.727,0l-2.5,4.8-5.343.9a.974.974,0,0,0-.534,1.643l3.8,3.866-.8,5.359a.974.974,0,0,0,1.4,1.015l4.849-2.416,4.85,2.416a.974.974,0,0,0,1.4-1.016l-.8-5.358,3.8-3.866a.974.974,0,0,0-.533-1.643Zm-4.992,4.491a.973.973,0,0,0-.268.825l.594,3.99-3.61-1.8a.975.975,0,0,0-.869,0l-3.61,1.8.594-3.99a.971.971,0,0,0-.268-.825l-2.826-2.879,3.978-.667a.978.978,0,0,0,.7-.511l1.864-3.577,1.865,3.577a.975.975,0,0,0,.7.511l3.979.667Zm0,0" transform="translate(-1106.639 -592.578)" fill="#11356a"/>
            <path id="Path_266" data-name="Path 266" d="M1168.946,620.46l-5.343-.9-2.5-4.8a.974.974,0,0,0-1.727,0l-2.5,4.8-5.343.9a.974.974,0,0,0-.534,1.643l3.8,3.866-.8,5.359a.974.974,0,0,0,1.4,1.015l4.85-2.416,4.849,2.416a.974.974,0,0,0,1.4-1.016l-.8-5.358,3.8-3.866a.974.974,0,0,0-.534-1.643Zm-4.991,4.491a.972.972,0,0,0-.268.825l.594,3.99-3.61-1.8a.977.977,0,0,0-.869,0l-3.611,1.8.594-3.99a.97.97,0,0,0-.268-.825l-2.826-2.879,3.979-.667a.977.977,0,0,0,.7-.511l1.864-3.577,1.864,3.577a.978.978,0,0,0,.7.511l3.978.667Zm0,0" transform="translate(-1129.717 -592.578)" fill="#11356a"/>
            <path id="Path_267" data-name="Path 267" d="M1213.783,621.12a.973.973,0,0,0-.765-.66l-5.343-.9-2.5-4.8a.975.975,0,0,0-1.728,0l-2.5,4.8-5.344.9a.974.974,0,0,0-.533,1.643l3.795,3.866-.8,5.359a.974.974,0,0,0,1.4,1.015l4.849-2.416,4.85,2.416a.974.974,0,0,0,1.4-1.016l-.8-5.358,3.8-3.866a.973.973,0,0,0,.231-.983Zm-5.756,3.831a.97.97,0,0,0-.268.825l.594,3.99-3.612-1.8a.976.976,0,0,0-.868,0l-3.61,1.8.594-3.99a.974.974,0,0,0-.268-.825l-2.826-2.879,3.978-.667a.976.976,0,0,0,.7-.511l1.865-3.577,1.864,3.577a.977.977,0,0,0,.7.511l3.978.667Zm0,0" transform="translate(-1152.793 -592.578)" fill="#11356a"/>
          </g>
          <path id="Path_268" data-name="Path 268" d="M1166.777,550.332a4.417,4.417,0,0,0,3.332-1.522.974.974,0,1,0-1.47-1.279,2.461,2.461,0,0,1-3.725,0,.974.974,0,1,0-1.47,1.279,4.418,4.418,0,0,0,3.332,1.522Zm0,0" transform="translate(-1136.259 -536.306)" fill="#11356a"/>
        </g>
      </g>
    </g>
  </g>
</svg>
