<svg id="Group_69" data-name="Group 69" xmlns="http://www.w3.org/2000/svg" width="55" height="55" viewBox="0 0 55 55">
  <g id="Group_68" data-name="Group 68">
    <path id="Path_263" data-name="Path 263" d="M1159.159,541.594a8.63,8.63,0,1,0-8.63-8.63,8.64,8.64,0,0,0,8.63,8.63Zm0-15.511a6.881,6.881,0,1,1-6.881,6.881,6.889,6.889,0,0,1,6.881-6.881Zm0,0" transform="translate(-1131.659 -524.334)" fill="#5cdb95"/>
    <g id="Group_67" data-name="Group 67" transform="translate(0 19.2)">
      <path id="Path_264" data-name="Path 264" d="M1150.825,570.521a13.247,13.247,0,0,1,13.237,12.308h-20.342a.875.875,0,1,0,0,1.749h21.252a.878.878,0,0,0,.88-.875,15.027,15.027,0,0,0-30.054,0,.877.877,0,0,0,.88.875h3.521a.875.875,0,1,0,0-1.749h-2.612a13.248,13.248,0,0,1,13.238-12.308Zm0,0" transform="translate(-1123.325 -568.772)" fill="#5cdb95"/>
      <path id="Path_265" data-name="Path 265" d="M1123.013,619.825l-4.8-.805-2.249-4.314a.875.875,0,0,0-1.551,0l-2.248,4.314-4.8.805a.875.875,0,0,0-.479,1.475l3.408,3.471-.717,4.812a.874.874,0,0,0,1.255.912l4.354-2.169,4.355,2.169a.875.875,0,0,0,1.255-.913l-.717-4.811,3.408-3.471a.875.875,0,0,0-.479-1.475Zm-4.483,4.033a.874.874,0,0,0-.241.741l.533,3.583-3.242-1.615a.875.875,0,0,0-.78,0l-3.242,1.615.533-3.583a.872.872,0,0,0-.241-.741l-2.537-2.585,3.572-.6a.878.878,0,0,0,.631-.459l1.674-3.212,1.674,3.212a.876.876,0,0,0,.63.459l3.573.6Zm0,0" transform="translate(-1106.639 -594.788)" fill="#5cdb95"/>
      <path id="Path_266" data-name="Path 266" d="M1167.085,619.825l-4.8-.805-2.248-4.314a.875.875,0,0,0-1.551,0l-2.249,4.314-4.8.805a.875.875,0,0,0-.479,1.475l3.408,3.471-.717,4.812a.875.875,0,0,0,1.255.912l4.355-2.169,4.354,2.169a.875.875,0,0,0,1.255-.913l-.717-4.811,3.409-3.471a.874.874,0,0,0-.48-1.475Zm-4.482,4.033a.873.873,0,0,0-.241.741l.533,3.583-3.242-1.615a.877.877,0,0,0-.78,0l-3.242,1.615.533-3.583a.872.872,0,0,0-.241-.741l-2.538-2.585,3.573-.6a.877.877,0,0,0,.631-.459l1.674-3.212,1.674,3.212a.878.878,0,0,0,.631.459l3.572.6Zm0,0" transform="translate(-1131.763 -594.788)" fill="#5cdb95"/>
      <path id="Path_267" data-name="Path 267" d="M1211.844,620.418a.874.874,0,0,0-.687-.592l-4.8-.805-2.248-4.314a.875.875,0,0,0-1.552,0l-2.248,4.314-4.8.805a.874.874,0,0,0-.479,1.475l3.407,3.471-.717,4.812a.875.875,0,0,0,1.255.912l4.355-2.169,4.355,2.169a.874.874,0,0,0,1.255-.913l-.717-4.811,3.409-3.471a.874.874,0,0,0,.208-.883Zm-5.169,3.44a.871.871,0,0,0-.241.741l.534,3.583-3.243-1.615a.876.876,0,0,0-.78,0l-3.242,1.615.533-3.583a.875.875,0,0,0-.241-.741l-2.538-2.585,3.572-.6a.876.876,0,0,0,.631-.459l1.674-3.212,1.674,3.212a.877.877,0,0,0,.631.459l3.572.6Zm0,0" transform="translate(-1156.887 -594.788)" fill="#5cdb95"/>
    </g>
    <path id="Path_268" data-name="Path 268" d="M1166.413,550.012a3.966,3.966,0,0,0,2.992-1.366.875.875,0,1,0-1.32-1.148,2.21,2.21,0,0,1-3.345,0,.875.875,0,1,0-1.32,1.148,3.967,3.967,0,0,0,2.992,1.366Zm0,0" transform="translate(-1138.912 -537.381)" fill="#5cdb95"/>
  </g>
</svg>
