<svg id="Group_73" data-name="Group 73" xmlns="http://www.w3.org/2000/svg" width="50.453" height="55" viewBox="0 0 50.453 55">
  <g id="Group_72" data-name="Group 72">
    <g id="Group_71" data-name="Group 71">
      <path id="Path_269" data-name="Path 269" d="M1140.283,853.96a8.021,8.021,0,1,1,8.021-8.02,8.021,8.021,0,0,1-8.021,8.02Zm3.438,5.729-2.75-2.063a1.147,1.147,0,0,0-1.375,0l-2.75,2.063v-4.045a10.114,10.114,0,0,0,6.875,0v4.045Zm-30.937-6.875a2.292,2.292,0,1,1-2.292-2.292,2.292,2.292,0,0,1,2.292,2.292Zm-4.583-17.187v-4.583h4.583v4.583Zm14.9-14.9v-4.583h4.583v4.583Zm11.458,40.1h-30.937a1.146,1.146,0,0,1-1.146-1.146V825.315h9.167a5.729,5.729,0,0,0,5.729-5.729v-9.167h22.917a1.146,1.146,0,0,1,1.146,1.146V835.7a10.2,10.2,0,0,0-7.609,2.223l-7.287-6.256v-8.639h3.438v-9.167H1120.8v9.167h3.437v9.167a1.146,1.146,0,0,0,.4.871l7.62,6.485a10.343,10.343,0,0,0-1.145,1.81h-19.479v-3.437h3.438v-9.166h-9.167v9.166h3.437V842.5a1.146,1.146,0,0,0,1.146,1.146h19.743a10.324,10.324,0,0,0-.264,2.292v.539l-7.242,5.19h-7.814a4.584,4.584,0,1,0,0,2.291h8.181a1.148,1.148,0,0,0,.664-.217l6.669-4.767a10.311,10.311,0,0,0,4.125,5.534v6.325Zm-19.479-48.8v7.551a3.438,3.438,0,0,1-3.437,3.438h-7.551l10.989-10.989Zm28.646,24.2v-24.67a3.438,3.438,0,0,0-3.438-3.437h-24.131a1.126,1.126,0,0,0-.287.057h-.115a1.133,1.133,0,0,0-.332.229l-14.9,14.9a1.153,1.153,0,0,0-.23.333v.1a1.143,1.143,0,0,0-.057.3l-.057.126v35.521a3.438,3.438,0,0,0,3.438,3.438H1135.7a1.149,1.149,0,0,0,.688-.218l3.9-2.933,3.9,2.921a1.145,1.145,0,0,0,1.833-.916V854.51a10.312,10.312,0,0,0-2.291-18.333v.057Z" transform="translate(-1100.179 -808.127)" fill="#5cdb95"/>
    </g>
    <path id="Path_270" data-name="Path 270" d="M1172.75,879.116l-2.615-2.615-1.61,1.61,3.426,3.426a1.143,1.143,0,0,0,1.61,0l5.709-5.71-1.61-1.61-4.91,4.9Z" transform="translate(-1133.752 -840.626)" fill="#5cdb95"/>
    <path id="Path_271" data-name="Path 271" d="M1170.1,819.405h2.284v9.135H1170.1v-9.135Z" transform="translate(-1134.578 -813.696)" fill="#5cdb95"/>
  </g>
</svg>
