<svg xmlns="http://www.w3.org/2000/svg" xmlns:xlink="http://www.w3.org/1999/xlink" width="85.927" height="71.25" viewBox="0 0 85.927 71.25">
  <defs>
    <filter id="Rectangle_71" x="14.677" y="0" width="71.25" height="71.25" filterUnits="userSpaceOnUse">
      <feOffset dy="3" input="SourceAlpha"/>
      <feGaussianBlur stdDeviation="3" result="blur"/>
      <feFlood flood-opacity="0.161"/>
      <feComposite operator="in" in2="blur"/>
      <feComposite in="SourceGraphic"/>
    </filter>
  </defs>
  <g id="Group_2730" data-name="Group 2730" transform="translate(-502.639 -4423.751)">
    <g transform="matrix(1, 0, 0, 1, 502.64, 4423.75)" filter="url(#Rectangle_71)">
      <rect id="Rectangle_71-2" data-name="Rectangle 71" width="37.654" height="37.654" rx="13.653" transform="translate(50.3 6) rotate(45)" fill="#00d9ac" opacity="0.36"/>
    </g>
    <g id="Group_171" data-name="Group 171" transform="translate(502.639 4425.668)">
      <g id="process" transform="translate(0)">
        <path id="Path_293" data-name="Path 293" d="M29.154,51.473H22.318a2.013,2.013,0,0,1-2.011-2.011v-3a21.239,21.239,0,0,1-5.385-2.233L12.8,46.352a2.013,2.013,0,0,1-2.844,0L5.121,41.518a2.013,2.013,0,0,1,0-2.843L7.245,36.55a21.239,21.239,0,0,1-2.233-5.385h-3A2.013,2.013,0,0,1,0,29.154V22.318a2.013,2.013,0,0,1,2.011-2.011H5.005a21.238,21.238,0,0,1,2.231-5.394L5.121,12.8a2.013,2.013,0,0,1,0-2.843L9.955,5.121a2.013,2.013,0,0,1,2.844,0l2.108,2.108a21.238,21.238,0,0,1,5.4-2.242V2.011A2.013,2.013,0,0,1,22.318,0h6.836a2.013,2.013,0,0,1,2.011,2.011V4.98a21.248,21.248,0,0,1,5.41,2.24l2.1-2.1a2.013,2.013,0,0,1,2.843,0l4.834,4.834a2.013,2.013,0,0,1,0,2.844l-2.1,2.1a21.248,21.248,0,0,1,2.24,5.41h2.969a2.013,2.013,0,0,1,2.011,2.011v6.836a2.013,2.013,0,0,1-2.011,2.011H46.486a21.252,21.252,0,0,1-2.242,5.4l2.108,2.108a2.013,2.013,0,0,1,0,2.843l-4.834,4.834a2.013,2.013,0,0,1-2.844,0l-2.115-2.115a21.25,21.25,0,0,1-5.394,2.231v2.995A2.013,2.013,0,0,1,29.154,51.473ZM14.772,41.951a1,1,0,0,1,.541.158,19.25,19.25,0,0,0,6.217,2.578,1,1,0,0,1,.788.982v3.793h6.836V45.675a1,1,0,0,1,.789-.982,19.264,19.264,0,0,0,6.227-2.575,1,1,0,0,1,1.251.137L40.1,44.93,44.93,40.1l-2.668-2.668a1,1,0,0,1-.136-1.253,19.262,19.262,0,0,0,2.588-6.232,1,1,0,0,1,.981-.788h3.767V22.318H45.7a1,1,0,0,1-.982-.789,19.251,19.251,0,0,0-2.584-6.242,1.006,1.006,0,0,1,.137-1.252l2.659-2.659L40.1,6.543,37.437,9.2a1.006,1.006,0,0,1-1.252.137,19.26,19.26,0,0,0-6.242-2.584,1,1,0,0,1-.789-.982V2.011H22.318V5.778a1,1,0,0,1-.788.982A19.26,19.26,0,0,0,15.3,9.347a1,1,0,0,1-1.252-.136L11.377,6.543,6.543,11.377l2.674,2.675A1,1,0,0,1,9.354,15.3,19.264,19.264,0,0,0,6.78,21.529a1,1,0,0,1-.982.789H2.011v6.836H5.8a1.006,1.006,0,0,1,.982.788A19.255,19.255,0,0,0,9.364,36.16a1,1,0,0,1-.137,1.252L6.543,40.1l4.834,4.834,2.684-2.685A1,1,0,0,1,14.772,41.951Zm0,0" fill="#12356a"/>
        <path id="Path_294" data-name="Path 294" d="M124.738,139.366a14.675,14.675,0,1,1,7.175-27.48,1.005,1.005,0,1,1-.983,1.753,12.667,12.667,0,1,0,5.145,5.395,1.005,1.005,0,1,1,1.8-.9,14.673,14.673,0,0,1-13.135,21.23Zm0,0" transform="translate(-99.002 -98.959)" fill="#12356a"/>
        <path id="Path_295" data-name="Path 295" d="M345.357,154.022a1.006,1.006,0,1,1,.711-.295A1.012,1.012,0,0,1,345.357,154.022Zm0,0" transform="translate(-309.733 -136.73)" fill="#12356a"/>
        <path id="Path_296" data-name="Path 296" d="M176.011,197.144a1,1,0,0,1-.711-.295l-6.357-6.358a1,1,0,0,1,0-1.422l3.606-3.606a1.006,1.006,0,0,1,1.422,0l2.04,2.041,4.879-4.878a1,1,0,0,1,1.422,0l3.606,3.606a1.006,1.006,0,0,1,0,1.422l-9.2,9.2A1.007,1.007,0,0,1,176.011,197.144Zm-4.936-7.363,4.936,4.936,7.774-7.773-2.184-2.184-4.878,4.878a1.005,1.005,0,0,1-1.422,0L173.26,187.6Zm0,0" transform="translate(-151.694 -164.002)" fill="#12356a"/>
      </g>
    </g>
  </g>
</svg>
