<svg id="Group_2737" data-name="Group 2737" xmlns="http://www.w3.org/2000/svg" width="37.724" height="38.691" viewBox="0 0 37.724 38.691">
  <rect id="Rectangle_177" data-name="Rectangle 177" width="25.276" height="25.276" rx="6" transform="translate(19.852) rotate(45)" fill="#00d9ac" opacity="0.36"/>
  <g id="Group_181" data-name="Group 181" transform="translate(0 8.128)">
    <g id="Group_180" data-name="Group 180" transform="translate(0 0)">
      <g id="Group_179" data-name="Group 179">
        <path id="Path_568" data-name="Path 568" d="M6003.19,755.05h-16.555a3.187,3.187,0,0,1-3.184-3.184V730.218a.637.637,0,0,1,.187-.45l5.095-5.094a.634.634,0,0,1,.449-.186h14.008a3.189,3.189,0,0,1,3.185,3.184v14.008H6005.1V727.671a1.91,1.91,0,0,0-1.91-1.91h-13.743l-4.721,4.721v21.385a1.909,1.909,0,0,0,1.909,1.91h16.555a1.91,1.91,0,0,0,1.91-1.91v-1.274h1.274v1.274a3.189,3.189,0,0,1-3.185,3.184Z" transform="translate(-5983.452 -724.487)" fill="#11356a"/>
        <g id="Group_178" data-name="Group 178" transform="translate(3.184 0.637)">
          <path id="Path_569" data-name="Path 569" d="M5996.847,732.642h-1.273v-1.273h1.273a.637.637,0,0,0,.637-.637v-3.82h1.273v3.82a1.91,1.91,0,0,1-1.911,1.91Z" transform="translate(-5995.573 -726.911)" fill="#11356a"/>
          <path id="Path_570" data-name="Path 570" d="M6052.87,785.732l.862.863,8.8-8.8-.863-.863-8.8,8.8Zm.862,2.4a.633.633,0,0,1-.449-.187l-1.764-1.763a.637.637,0,0,1,0-.9l9.7-9.7a.637.637,0,0,1,.9,0l1.763,1.763a.638.638,0,0,1,0,.9l-9.7,9.7a.635.635,0,0,1-.451.187Z" transform="translate(-6036.688 -762.663)" fill="#11356a"/>
        </g>
        <path id="Path_571" data-name="Path 571" d="M6053.879,816.733h-1.911a.637.637,0,0,1-.637-.637v-1.91h1.274v1.274h1.273v1.273Z" transform="translate(-6033.503 -790.627)" fill="#11356a"/>
        <path id="Path_572" data-name="Path 572" d="M6052.091,737.368h-1.272v-1.274a.637.637,0,0,0-.637-.637h-1.274v-1.273h1.274a1.91,1.91,0,0,1,1.909,1.91v1.274Z" transform="translate(-6031.717 -731.637)" fill="#11356a"/>
        <path id="Path_573" data-name="Path 573" d="M6006.544,767.581l4.105,2.011a.661.661,0,0,0,.667.019l4.142-2.031V759.7h-8.915v7.88Zm4.466,3.39a1.933,1.933,0,0,1-.955-.255l-4.428-2.165a.637.637,0,0,1-.357-.573v-8.914a.637.637,0,0,1,.637-.637h10.188a.637.637,0,0,1,.637.637v8.914a.638.638,0,0,1-.358.573l-4.461,2.186a1.814,1.814,0,0,1-.9.234Z" transform="translate(-5999.54 -749.513)" fill="#11356a"/>
        <path id="Path_574" data-name="Path 574" d="M6030.4,814.946h-3.819a1.91,1.91,0,0,1-1.911-1.91v-1.274h1.273v1.274a.637.637,0,0,0,.638.637h3.819v1.273Z" transform="translate(-6013.84 -788.84)" fill="#11356a"/>
        <path id="Path_575" data-name="Path 575" d="M6039.21,734.184h1.273v1.273h-1.273v-1.273Z" transform="translate(-6024.565 -731.637)" fill="#11356a"/>
      </g>
      <text id="x" transform="translate(8.777 14.148)" fill="#11356a" font-size="8" font-family="Helvetica" letter-spacing="-0.033em"><tspan x="0" y="0">x</tspan></text>
    </g>
  </g>
</svg>
