<svg xmlns="http://www.w3.org/2000/svg" xmlns:xlink="http://www.w3.org/1999/xlink" width="69.636" height="70.444" viewBox="0 0 69.636 70.444">
  <defs>
    <filter id="Rectangle_72" x="0" y="0.857" width="69.587" height="69.587" filterUnits="userSpaceOnUse">
      <feOffset dy="3" input="SourceAlpha"/>
      <feGaussianBlur stdDeviation="3" result="blur"/>
      <feFlood flood-opacity="0.161"/>
      <feComposite operator="in" in2="blur"/>
      <feComposite in="SourceGraphic"/>
    </filter>
  </defs>
  <g id="Group_174" data-name="Group 174" transform="translate(9)">
    <g transform="matrix(1, 0, 0, 1, -9, 0)" filter="url(#Rectangle_72)">
      <rect id="Rectangle_72-2" data-name="Rectangle 72" width="36.478" height="36.478" rx="13.653" transform="translate(34.79 6.86) rotate(45)" fill="#00d9ac" opacity="0.36"/>
    </g>
    <g id="design" transform="translate(6.993)">
      <g id="Group_170" data-name="Group 170" transform="translate(0)">
        <path id="Path_292" data-name="Path 292" d="M53.323,15.761c0-.02-.007-.04-.012-.06a19.106,19.106,0,0,0-1.469-4.563.783.783,0,0,0-.074-.158,19.3,19.3,0,0,0-2.277-3.648.788.788,0,0,0-.12-.155l-.02-.018a19.431,19.431,0,0,0-2.938-2.925l-.018-.02a.786.786,0,0,0-.16-.122,19.3,19.3,0,0,0-3.661-2.258.775.775,0,0,0-.156-.073A19.1,19.1,0,0,0,37.832.311L37.772.3a19.33,19.33,0,0,0-6.015-.12h-.008a19.312,19.312,0,0,0-16.26,15.309,19.186,19.186,0,0,0-5.943,2.255.787.787,0,0,0,.8,1.359,17.592,17.592,0,0,1,4.892-1.947,19.321,19.321,0,0,0,.183,5.5c0,.022.007.043.012.064a19.1,19.1,0,0,0,1.45,4.587.78.78,0,0,0,.073.157,19.308,19.308,0,0,0,2.258,3.66.786.786,0,0,0,.122.16l.019.018a19.436,19.436,0,0,0,2.925,2.939l.018.02a.786.786,0,0,0,.155.119A19.3,19.3,0,0,0,26.1,36.652a.779.779,0,0,0,.158.074A19.1,19.1,0,0,0,30.818,38.2l.059.011a19.29,19.29,0,0,0,5.611.2A17.69,17.69,0,0,1,1.575,34.38,17.527,17.527,0,0,1,7.123,21.515.787.787,0,0,0,6.042,20.37,19.264,19.264,0,1,0,38.155,38.154a19.311,19.311,0,0,0,15.329-16.4s0-.01,0-.014a19.356,19.356,0,0,0-.162-5.977ZM48.73,8.933a17.723,17.723,0,0,1,1.41,2.3L36.188,25.186a19.328,19.328,0,0,0-1.448-2.263Zm-.984-1.244-14,14a19.4,19.4,0,0,0-1.86-1.852l14-14A17.854,17.854,0,0,1,47.746,7.689ZM44.637,4.86,30.647,18.85a19.323,19.323,0,0,0-2.273-1.439l13.95-13.95A17.708,17.708,0,0,1,44.637,4.86Zm-6.72-2.93a17.54,17.54,0,0,1,2.867.845l-13.91,13.91a19.108,19.108,0,0,0-2.761-.95ZM32.2,1.709a17.774,17.774,0,0,1,2.181-.135c.537,0,1.068.025,1.593.072l-13.7,13.7a19.333,19.333,0,0,0-3-.235c-.16,0-.32,0-.479.008Zm-2.811.584L17.41,14.272A17.762,17.762,0,0,1,29.389,2.293ZM16.764,20.856c-.047-.525-.073-1.056-.073-1.593a17.773,17.773,0,0,1,.135-2.181l.255-.255a17.742,17.742,0,0,1,2.183-.137c.537,0,1.068.025,1.593.072Zm.283,1.944L22.8,17.047a17.516,17.516,0,0,1,2.867.845l-7.775,7.776A17.542,17.542,0,0,1,17.047,22.8Zm2.93,6.72a17.71,17.71,0,0,1-1.4-2.313l8.628-8.628a17.722,17.722,0,0,1,2.313,1.4Zm.979,1.248,9.813-9.813a17.864,17.864,0,0,1,1.861,1.85l-9.823,9.823A17.844,17.844,0,0,1,20.956,30.768Zm3.094,2.844,9.564-9.563a17.71,17.71,0,0,1,1.41,2.3l-8.671,8.671A17.743,17.743,0,0,1,24.049,33.613Zm6.688,2.961a17.521,17.521,0,0,1-2.854-.858l7.832-7.832a17.542,17.542,0,0,1,.858,2.854Zm6.1-.158-.418.418a17.781,17.781,0,0,1-2.036.118c-.577,0-1.147-.029-1.71-.083l4.2-4.2c.054.563.083,1.133.083,1.71A17.78,17.78,0,0,1,36.834,36.416Zm1.047-6.985a19.112,19.112,0,0,0-.962-2.75L50.833,12.768a17.532,17.532,0,0,1,.858,2.854Zm1.309,6.856L51.4,24.074A17.761,17.761,0,0,1,39.191,36.287ZM51.951,21.3,38.522,34.728c0-.116,0-.232,0-.348a19.309,19.309,0,0,0-.253-3.115L51.986,17.553c.054.563.083,1.133.083,1.71A17.825,17.825,0,0,1,51.951,21.3Z" transform="translate(0)" fill="#12356a"/>
      </g>
    </g>
  </g>
</svg>
