<svg xmlns="http://www.w3.org/2000/svg" xmlns:xlink="http://www.w3.org/1999/xlink" width="74.02" height="74.02" viewBox="0 0 74.02 74.02">
  <defs>
    <filter id="Rectangle_15" x="0" y="0" width="74.02" height="74.02" filterUnits="userSpaceOnUse">
      <feOffset dy="3" input="SourceAlpha"/>
      <feGaussianBlur stdDeviation="3" result="blur"/>
      <feFlood flood-opacity="0.161"/>
      <feComposite operator="in" in2="blur"/>
      <feComposite in="SourceGraphic"/>
    </filter>
  </defs>
  <g id="Group_2731" data-name="Group 2731" transform="translate(-846.005 -4422.096)">
    <g transform="matrix(1, 0, 0, 1, 846, 4422.1)" filter="url(#Rectangle_15)">
      <rect id="Rectangle_15-2" data-name="Rectangle 15" width="39.612" height="39.612" rx="13.653" transform="translate(37.01 6) rotate(45)" fill="#00d9ac" opacity="0.36"/>
    </g>
    <g id="target" transform="translate(866.853 4428.202)">
      <g id="Group_169" data-name="Group 169" transform="translate(0 0)">
        <path id="Path_291" data-name="Path 291" d="M41.742,7.162a24.452,24.452,0,1,0-34.58,34.58,24.452,24.452,0,1,0,34.58-34.58Zm-18.8-4.078v8.974A12.51,12.51,0,0,0,12.058,22.937H3.084A21.454,21.454,0,0,1,22.937,3.084Zm-7.82,19.853a9.479,9.479,0,0,1,7.82-7.82v7.82Zm7.82,3.029v7.82a9.479,9.479,0,0,1-7.82-7.82h7.82Zm0,19.853A21.454,21.454,0,0,1,3.084,25.967h8.974A12.51,12.51,0,0,0,22.937,36.845V45.82ZM25.966,3.084A21.454,21.454,0,0,1,45.82,22.937H36.845A12.51,12.51,0,0,0,25.966,12.058V3.084Zm0,19.853v-7.82a9.479,9.479,0,0,1,7.82,7.82Zm7.82,3.029a9.479,9.479,0,0,1-7.82,7.82v-7.82h7.82ZM25.966,45.82V36.846A12.511,12.511,0,0,0,36.846,25.967H45.82A21.455,21.455,0,0,1,25.966,45.82Z" transform="translate(0 0)" fill="#12356a"/>
      </g>
    </g>
  </g>
</svg>
