<svg xmlns="http://www.w3.org/2000/svg" width="79.352" height="86.546" viewBox="0 0 79.352 86.546"><defs><style>.a{fill:#1e3769;}</style></defs><g transform="translate(0)"><path class="a" d="M253,132.264a7.686,7.686,0,0,1,.125,4.615l.753.053,1.975-3.229-1.6-1.872-1.255.434" transform="translate(-239.796 -120.608)"/><path class="a" d="M275,117.7a4.7,4.7,0,0,0,3.357.8l-.043.565-2.008.655-1.219-1.659L275,117.7" transform="translate(-256.275 -110.024)"/><path class="a" d="M236.036,297.189s-1.651-2.216.753-.525l.4-.846-1.854-1-1.568-.645.683,3.513Z" transform="translate(-225.391 -242.212)"/><path class="a" d="M223.356,247.63s-.805,2.617,1.287,1l.08.725-1.287,2.053-2.457.04,1.087-3.513Z" transform="translate(-215.811 -207.35)"/><path class="a" d="M277.479,362.094s1.731,2.677,1.448-.3c0,0,.223.121.284.141s1.107,3.646,1.107,3.646l-1.506.221-1.651-2.76Z" transform="translate(-257.893 -292.864)"/><path class="a" d="M313.868,389.67s-3.889,1.177.013,2.075l-.223.562-4.547-1.282.346-.753Z" transform="translate(-281.826 -313.748)"/><path class="a" d="M302.276,405.332a5.734,5.734,0,0,1,4.366-1.107l-.035-.3-1.869-.366-1.769-.148-.908,1.639.216.286" transform="translate(-276.545 -324.04)"/><path class="a" d="M293.152,361.16s.524,6.361,7.006,4.913l.083.5-3.606,1.531-2.577-.685-.986-2.537-.361-2.8.02-.765Z" transform="translate(-269.541 -292.392)"/><path class="a" d="M409.7,413.953a3.593,3.593,0,0,1,1.558-2.4l-.223-.344-1.721,1.2-.384.868.344.986.424-.3" transform="translate(-356.598 -329.883)"/><path class="a" d="M379.333,398.6a6.9,6.9,0,0,0,9.535-.251l.04.3-3.362,3.706-3.7.04-3.4-3.566Z" transform="translate(-333.759 -320.25)"/><path class="a" d="M466.609,348.87s2.738-2.2-1.019-1.639c0,0,.08-.725.161-.725s5.636-1.046,5.636-1.046l-1.34,1.611-3.2,2.336Z" transform="translate(-399.04 -280.632)"/><path class="a" d="M482.464,329.2a6.744,6.744,0,0,1-3.134,2.291v.3l3.784-.123.314-2.542-.966.073" transform="translate(-409.332 -268.4)"/><path class="a" d="M488.693,351.738a5.159,5.159,0,0,1,3.365-1.067v-.251l-1.822-.251-1.737,1.019.023.5Z" transform="translate(-416.201 -284.16)"/><path class="a" d="M292.053,129.006s-1.932-.645-1.972-.966.482-.442,2.858-.886l-.08-.524-4.424.645-.524.4,2.537,1.255Z" transform="translate(-265.946 -116.713)"/><path class="a" d="M205.89,248.757s2.979-1.995,3.731-4.547l.6,1.92-.911,2.718-2.241.65-.928-.02-.251-.72h0" transform="translate(-204.507 -204.789)"/><path class="a" d="M394.567,96.774a.116.116,0,0,0-.2-.068,8.256,8.256,0,0,1-5.129,2.7l-.028.349,4.5-.407a.113.113,0,0,0,.093-.063l.813-1.634a.1.1,0,0,0,.013-.06Z" transform="translate(-341.826 -94.27)"/><path class="a" d="M496.692,188.4a.053.053,0,0,0-.02-.1,3.887,3.887,0,0,1-2.371-1.39l-.151.075,1.3,1.736.913-.085Z" transform="translate(-420.433 -161.867)"/><path class="a" d="M484.564,206.923a.06.06,0,0,1-.11.018,4.24,4.24,0,0,0-2.334-1.99l.025-.191,2.289.685.251,1.024Z" transform="translate(-411.422 -175.238)"/><path class="a" d="M441.108,108.468a.108.108,0,0,1,.173.108,7.781,7.781,0,0,0,.944,5.5l-.251.238-2.359-3.606a.108.108,0,0,1,0-.11l.8-1.624a.1.1,0,0,1,.04-.045Z" transform="translate(-379.571 -103.091)"/><path class="a" d="M387.642,118.1s4.645-3.568-1.062-2.871l.04-.228,6-.78-4.429,4.266Z" transform="translate(-339.856 -107.417)"/><path class="a" d="M473.893,186.013s4.386,1.541,1.45-1.95l.168-.073,3.119,3.654-4.75-1.1Z" transform="translate(-405.25 -159.68)"/><path class="a" d="M388.884,126.414s8.86-8.333,15.462,1.33l-.575-2.665-3.746-3.576-4.63-.753-4.228,2.886-2.657,2.5Z" transform="translate(-341.302 -112.309)"/><path class="a" d="M272.732,142.982s-.5-4.389.565-5.046,5.488.657,5.568.657-3.315-1.506-3.315-1.506l-3.262-.778-.818,2.509.913,4.093Z" transform="translate(-253.631 -123.964)"/><path class="a" d="M251.525,156.1s1.556-4.993,2.577-5.1.7,3.7,1.287,5.852l.429-1.719-.966-7.528-1.45,1.074-2.522,7.407.429-.108Z" transform="translate(-238.208 -132.429)"/><path class="a" d="M228.071,263.074s-4.994-3.9-5.034-5.475,2.577-3.463,4.188-4.993l-.123-.645-6.722,4.753-.04,1.127,6.69,5.924Z" transform="translate(-215.331 -210.594)"/><path class="a" d="M211.07,283.7s-.7-1.423-4.13-2.9l.5-.753,2.492.291.5,1.056,1.646,2.329Z" transform="translate(-205.294 -231.635)"/><path class="a" d="M372.55,417.513a11.873,11.873,0,0,1,4.848,2.647l.138-.524v-1.571l-1.531-.07-3.445-.645Z" transform="translate(-329.347 -334.482)"/><path class="a" d="M372.4,405.39s.785.753-.341.524v.422l1.571.1-.04-.685-.946-.381Z" transform="translate(-328.98 -325.509)"/><ellipse class="a" cx="3.651" cy="3.651" rx="3.651" ry="3.651" transform="translate(13.101 7.086)"/><ellipse class="a" cx="3.006" cy="3.006" rx="3.006" ry="3.006" transform="translate(47.14 80.534)"/><ellipse class="a" cx="3.435" cy="3.435" rx="3.435" ry="3.435" transform="translate(72.482 26.416)"/><ellipse class="a" cx="3.435" cy="3.435" rx="3.435" ry="3.435" transform="translate(72.261 59.644)"/><ellipse class="a" cx="4.938" cy="4.938" rx="4.938" ry="4.938" transform="translate(51.865 0)"/><ellipse class="a" cx="4.938" cy="4.938" rx="4.938" ry="4.938" transform="translate(18.04 72.266)"/><ellipse class="a" cx="3.006" cy="3.006" rx="3.006" ry="3.006" transform="translate(0 43.489)"/><rect class="a" width="45.293" height="2.64" rx="1.32" transform="translate(13.818 9.567) rotate(-7.63)"/><rect class="a" width="27.56" height="2.59" rx="1.295" transform="translate(59.686 7.171) rotate(51.52)"/><rect class="a" width="62.54" height="2.64" rx="1.32" transform="translate(74.383 30.985) rotate(-161.7)"/><rect class="a" width="67.599" height="2.645" rx="1.322" transform="translate(3.208 45.676) rotate(-38.24)"/><rect class="a" width="67.599" height="2.645" rx="1.322" transform="matrix(-0.09, -0.996, 0.996, -0.09, 22.008, 79.718)"/><rect class="a" width="38.643" height="2.575" rx="1.287" transform="translate(2.552 46.657) rotate(-70.45)"/><rect class="a" width="38.651" height="2.595" rx="1.297" transform="matrix(-0.533, -0.846, 0.846, -0.533, 22.679, 78.925)"/><rect class="a" width="33.751" height="2.585" rx="1.293" transform="matrix(0.783, -0.622, 0.622, 0.783, 47.707, 83.026)"/><rect class="a" width="31.341" height="2.595" rx="1.297" transform="matrix(0.978, 0.21, -0.21, 0.978, 20.619, 75.537)"/><rect class="a" width="56.337" height="2.595" rx="1.297" transform="translate(21.924 75.986) rotate(-15.09)"/><rect class="a" width="61.087" height="2.595" rx="1.297" transform="matrix(0.784, 0.62, -0.62, 0.784, 3.391, 44.932)"/></g></svg>