<svg id="Layer_1" data-name="Layer 1" xmlns="http://www.w3.org/2000/svg" width="63.2" height="68.93" viewBox="0 0 63.2 68.93">
  <path id="Path_6069" data-name="Path 6069" d="M253,132.176a6.122,6.122,0,0,1,.1,3.675l.6.042,1.573-2.572L254,131.83l-1,.346" transform="translate(-242.484 -122.893)" fill="#12356a"/>
  <path id="Path_6070" data-name="Path 6070" d="M275,117.7a3.743,3.743,0,0,0,2.674.637l-.034.45-1.6.522-.971-1.321L275,117.7" transform="translate(-260.087 -111.586)" fill="#12356a"/>
  <path id="Path_6071" data-name="Path 6071" d="M235.575,296.574s-1.315-1.765.6-.418l.322-.674-1.477-.8-1.249-.514.544,2.8Z" transform="translate(-227.097 -252.788)" fill="#12356a"/>
  <path id="Path_6072" data-name="Path 6072" d="M222.873,247.63s-.642,2.085,1.025.8l.064.578-1.025,1.635-1.957.032.865-2.8Z" transform="translate(-216.863 -215.549)" fill="#12356a"/>
  <path id="Path_6073" data-name="Path 6073" d="M277.414,362.032s1.379,2.132,1.153-.242c0,0,.178.1.226.112s.881,2.9.881,2.9l-1.2.176-1.315-2.2Z" transform="translate(-261.815 -306.894)" fill="#12356a"/>
  <path id="Path_6074" data-name="Path 6074" d="M312.9,389.67s-3.1.937.01,1.653l-.178.448-3.621-1.021.276-.6Z" transform="translate(-287.38 -329.202)" fill="#12356a"/>
  <path id="Path_6075" data-name="Path 6075" d="M302.232,404.941a4.566,4.566,0,0,1,3.477-.881l-.028-.24-1.489-.292-1.409-.118-.724,1.305.172.228" transform="translate(-281.739 -340.196)" fill="#12356a"/>
  <path id="Path_6076" data-name="Path 6076" d="M293.062,361.16s.418,5.066,5.58,3.913l.066.4-2.872,1.219-2.053-.546L293,364.126l-.288-2.228.016-.61Z" transform="translate(-274.258 -306.39)" fill="#12356a"/>
  <path id="Path_6077" data-name="Path 6077" d="M409.544,413.394a2.862,2.862,0,0,1,1.241-1.911l-.178-.274-1.371.957-.306.691.274.785.338-.242" transform="translate(-367.251 -346.438)" fill="#12356a"/>
  <path id="Path_6078" data-name="Path 6078" d="M379.152,398.55a5.5,5.5,0,0,0,7.594-.2l.032.24-2.678,2.952-2.95.032-2.71-2.84Z" transform="translate(-342.854 -336.148)" fill="#12356a"/>
  <path id="Path_6079" data-name="Path 6079" d="M466.4,348.176s2.18-1.753-.811-1.305c0,0,.064-.578.128-.578s4.489-.833,4.489-.833l-1.067,1.283-2.546,1.861Z" transform="translate(-412.587 -293.828)" fill="#12356a"/>
  <path id="Path_6080" data-name="Path 6080" d="M481.826,329.188a5.371,5.371,0,0,1-2.5,1.825v.24l3.014-.1.25-2.025-.769.058" transform="translate(-423.581 -280.761)" fill="#12356a"/>
  <path id="Path_6081" data-name="Path 6081" d="M488.654,351.419a4.108,4.108,0,0,1,2.68-.849v-.2l-1.451-.2-1.383.811.018.4Z" transform="translate(-430.918 -297.597)" fill="#12356a"/>
  <path id="Path_6082" data-name="Path 6082" d="M291.21,128.523s-1.539-.514-1.571-.769.384-.352,2.276-.705l-.064-.418-3.523.514-.418.322,2.021,1Z" transform="translate(-270.417 -118.732)" fill="#12356a"/>
  <path id="Path_6083" data-name="Path 6083" d="M205.89,247.831a8.18,8.18,0,0,0,2.972-3.621l.482,1.529-.726,2.164-1.785.518-.739-.016-.2-.574h0" transform="translate(-204.789 -212.813)" fill="#12356a"/>
  <path id="Path_6084" data-name="Path 6084" d="M393.477,96.752a.092.092,0,0,0-.16-.054,6.576,6.576,0,0,1-4.085,2.146l-.022.278,3.583-.324a.09.09,0,0,0,.074-.05l.647-1.3a.079.079,0,0,0,.01-.048Z" transform="translate(-351.472 -94.758)" fill="#12356a"/>
  <path id="Path_6085" data-name="Path 6085" d="M496.174,188.1a.042.042,0,0,0-.016-.078,3.1,3.1,0,0,1-1.889-1.107l-.12.06,1.033,1.383.727-.068Z" transform="translate(-435.439 -166.965)" fill="#12356a"/>
  <path id="Path_6086" data-name="Path 6086" d="M484.067,206.483a.048.048,0,0,1-.088.014,3.376,3.376,0,0,0-1.859-1.585l.02-.152,1.823.546.2.815Z" transform="translate(-425.813 -181.247)" fill="#12356a"/>
  <path id="Path_6087" data-name="Path 6087" d="M440.8,108.463a.086.086,0,0,1,.138.086,6.2,6.2,0,0,0,.751,4.383l-.2.19-1.879-2.872a.086.086,0,0,1,0-.088l.633-1.293a.081.081,0,0,1,.032-.036Z" transform="translate(-391.791 -104.18)" fill="#12356a"/>
  <path id="Path_6088" data-name="Path 6088" d="M387.425,117.31s3.7-2.842-.845-2.286l.032-.182,4.778-.622-3.527,3.4Z" transform="translate(-349.367 -108.802)" fill="#12356a"/>
  <path id="Path_6089" data-name="Path 6089" d="M473.89,185.6s3.493,1.227,1.155-1.553l.134-.058,2.484,2.91-3.783-.877Z" transform="translate(-419.22 -164.628)" fill="#12356a"/>
  <path id="Path_6090" data-name="Path 6090" d="M388.808,125.261s7.057-6.637,12.315,1.059l-.458-2.122-2.984-2.848-3.687-.6-3.367,2.3-2.116,1.989Z" transform="translate(-350.912 -114.027)" fill="#12356a"/>
  <path id="Path_6091" data-name="Path 6091" d="M272.475,141.624s-.4-3.5.45-4.019,4.371.524,4.435.524-2.64-1.2-2.64-1.2l-2.6-.62-.652,2,.727,3.26Z" transform="translate(-257.262 -126.477)" fill="#12356a"/>
  <path id="Path_6092" data-name="Path 6092" d="M251.394,154.375s1.239-3.977,2.052-4.061.556,2.95,1.025,4.661l.342-1.369-.769-6-1.155.855-2.009,5.9.342-.086Z" transform="translate(-240.787 -135.519)" fill="#12356a"/>
  <path id="Path_6093" data-name="Path 6093" d="M226.5,260.811s-3.977-3.11-4.009-4.361,2.052-2.758,3.336-3.977l-.1-.514-5.354,3.785-.032.9,5.328,4.719Z" transform="translate(-216.351 -219.014)" fill="#12356a"/>
  <path id="Path_6094" data-name="Path 6094" d="M210.23,282.96s-.554-1.133-3.29-2.31l.4-.6,1.985.232.4.841,1.311,1.855Z" transform="translate(-205.629 -241.49)" fill="#12356a"/>
  <path id="Path_6095" data-name="Path 6095" d="M372.55,417.48a9.459,9.459,0,0,1,3.861,2.109l.11-.418V417.92l-1.219-.056-2.744-.514Z" transform="translate(-338.141 -351.35)" fill="#12356a"/>
  <path id="Path_6096" data-name="Path 6096" d="M372.332,405.386s.626.6-.272.418v.336l1.251.08-.032-.546-.753-.3Z" transform="translate(-337.749 -341.765)" fill="#12356a"/>
  <ellipse id="Ellipse_43" data-name="Ellipse 43" cx="2.908" cy="2.908" rx="2.908" ry="2.908" transform="translate(10.434 5.644)" fill="#12356a"/>
  <ellipse id="Ellipse_44" data-name="Ellipse 44" cx="2.394" cy="2.394" rx="2.394" ry="2.394" transform="translate(37.544 64.141)" fill="#12356a"/>
  <ellipse id="Ellipse_45" data-name="Ellipse 45" cx="2.736" cy="2.736" rx="2.736" ry="2.736" transform="translate(57.728 21.039)" fill="#12356a"/>
  <ellipse id="Ellipse_46" data-name="Ellipse 46" cx="2.736" cy="2.736" rx="2.736" ry="2.736" transform="translate(57.552 47.503)" fill="#12356a"/>
  <ellipse id="Ellipse_47" data-name="Ellipse 47" cx="3.933" cy="3.933" rx="3.933" ry="3.933" transform="translate(41.308)" fill="#12356a"/>
  <ellipse id="Ellipse_48" data-name="Ellipse 48" cx="3.933" cy="3.933" rx="3.933" ry="3.933" transform="translate(14.367 57.556)" fill="#12356a"/>
  <ellipse id="Ellipse_49" data-name="Ellipse 49" cx="2.394" cy="2.394" rx="2.394" ry="2.394" transform="translate(0 34.637)" fill="#12356a"/>
  <rect id="Rectangle_1696" data-name="Rectangle 1696" width="36.074" height="2.102" rx="1.051" transform="translate(11.005 7.619) rotate(-7.63)" fill="#12356a"/>
  <rect id="Rectangle_1697" data-name="Rectangle 1697" width="21.95" height="2.062" rx="1.031" transform="translate(47.536 5.711) rotate(51.52)" fill="#12356a"/>
  <rect id="Rectangle_1698" data-name="Rectangle 1698" width="49.809" height="2.102" rx="1.051" transform="translate(59.242 24.678) rotate(-161.7)" fill="#12356a"/>
  <rect id="Rectangle_1699" data-name="Rectangle 1699" width="53.839" height="2.106" rx="1.053" transform="translate(2.555 36.379) rotate(-38.24)" fill="#12356a"/>
  <rect id="Rectangle_1700" data-name="Rectangle 1700" width="53.839" height="2.106" rx="1.053" transform="matrix(-0.09, -0.996, 0.996, -0.09, 17.528, 63.491)" fill="#12356a"/>
  <rect id="Rectangle_1701" data-name="Rectangle 1701" width="30.777" height="2.05" rx="1.025" transform="translate(2.033 37.16) rotate(-70.45)" fill="#12356a"/>
  <rect id="Rectangle_1702" data-name="Rectangle 1702" width="30.783" height="2.066" rx="1.033" transform="matrix(-0.533, -0.846, 0.846, -0.533, 18.062, 62.86)" fill="#12356a"/>
  <rect id="Rectangle_1703" data-name="Rectangle 1703" width="26.881" height="2.059" rx="1.03" transform="matrix(0.783, -0.622, 0.622, 0.783, 37.996, 66.126)" fill="#12356a"/>
  <rect id="Rectangle_1704" data-name="Rectangle 1704" width="24.962" height="2.066" rx="1.033" transform="matrix(0.978, 0.21, -0.21, 0.978, 16.422, 60.161)" fill="#12356a"/>
  <rect id="Rectangle_1705" data-name="Rectangle 1705" width="44.869" height="2.066" rx="1.033" transform="translate(17.461 60.519) rotate(-15.09)" fill="#12356a"/>
  <rect id="Rectangle_1706" data-name="Rectangle 1706" width="48.652" height="2.066" rx="1.033" transform="matrix(0.784, 0.62, -0.62, 0.784, 2.7, 35.786)" fill="#12356a"/>
</svg>
