<svg xmlns="http://www.w3.org/2000/svg" xmlns:xlink="http://www.w3.org/1999/xlink" width="90" height="30" viewBox="0 0 90 30"><defs><style>.a{fill:#fff;}.b{clip-path:url(#c);}.c{fill:#4285f4;}.d{fill:#ea4335;}.e{fill:#fbbc05;}.f{fill:#34a853;}.g{filter:url(#a);}</style><filter id="a" x="-45" y="-35" width="180" height="120" filterUnits="userSpaceOnUse"><feOffset dy="10" input="SourceAlpha"/><feGaussianBlur stdDeviation="15" result="b"/><feFlood flood-opacity="0.161"/><feComposite operator="in" in2="b"/><feComposite in="SourceGraphic"/></filter><clipPath id="c"><g class="g" transform="matrix(1, 0, 0, 1, 0, 0)"><rect class="a" width="90" height="30" rx="10" transform="translate(-0.21 0.26)"/></g></clipPath></defs><g class="b" transform="translate(0.213 -0.258)"><g transform="translate(0.211 0.252)"><path class="c" d="M12.948,10.042v3.016h7.21a6.4,6.4,0,0,1-1.643,3.8,7.382,7.382,0,0,1-5.567,2.207,7.913,7.913,0,0,1-7.909-8.019,7.913,7.913,0,0,1,7.909-8.019A7.666,7.666,0,0,1,18.38,5.187L20.5,3.065A10.415,10.415,0,0,0,12.948,0a11.19,11.19,0,0,0-11.2,11.036,11.19,11.19,0,0,0,11.2,11.036,10.114,10.114,0,0,0,7.7-3.09,9.982,9.982,0,0,0,2.612-7.051,9.692,9.692,0,0,0-.159-1.888Z" transform="translate(-1.753)"/><path class="d" d="M312.662,98.65a7.124,7.124,0,1,0,7.149,7.124A7.02,7.02,0,0,0,312.662,98.65Zm0,11.44a4.327,4.327,0,1,1,4.022-4.316A4.12,4.12,0,0,1,312.662,110.091Z" transform="translate(-282.143 -91.06)"/><path class="c" d="M727.689,100.245h-.11a4.938,4.938,0,0,0-3.752-1.594,7.14,7.14,0,0,0,0,14.248,4.865,4.865,0,0,0,3.752-1.619h.11v.993c0,2.722-1.459,4.181-3.8,4.181a3.951,3.951,0,0,1-3.593-2.538l-2.722,1.128a6.786,6.786,0,0,0,6.315,4.206c3.666,0,6.769-2.158,6.769-7.418V99.018h-2.967Zm-3.593,9.846c-2.158,0-3.8-1.839-3.8-4.316,0-2.514,1.643-4.316,3.8-4.316,2.134,0,3.8,1.839,3.8,4.341A3.967,3.967,0,0,1,724.1,110.091Z" transform="translate(-662.125 -91.06)"/><path class="e" d="M519.844,98.65a7.124,7.124,0,1,0,7.149,7.124A7.02,7.02,0,0,0,519.844,98.65Zm0,11.44a4.327,4.327,0,1,1,4.022-4.316A4.12,4.12,0,0,1,519.844,110.091Z" transform="translate(-473.384 -91.06)"/><path class="f" d="M924.35,3.825h3.078V25.369H924.35Z" transform="translate(-853.367 -3.531)"/><path class="d" d="M1003.13,110.091a3.626,3.626,0,0,1-3.458-2.158L1009.2,104l-.319-.809a6.616,6.616,0,0,0-6.094-4.537,6.769,6.769,0,0,0-6.719,7.124,6.964,6.964,0,0,0,7.063,7.124,7.108,7.108,0,0,0,5.935-3.151l-2.428-1.619A4.079,4.079,0,0,1,1003.13,110.091Zm-.221-8.767a2.817,2.817,0,0,1,2.7,1.57l-6.437,2.661A3.871,3.871,0,0,1,1002.909,101.324Z" transform="translate(-919.566 -91.06)"/></g></g></svg>