<svg xmlns="http://www.w3.org/2000/svg" width="99.706" height="28.306" viewBox="0 0 99.706 28.306"><defs><style>.a{fill:#645a53;}.a,.b{fill-rule:evenodd;}.b{fill:#ea5252;}</style></defs><g transform="translate(0)"><g transform="translate(0 0)"><path class="a" d="M290.529,61.745h2.861L298.34,49.2h-2.832l-2.046,6.248L291.307,49.2h-3.161l3.764,9.061Zm-14.2-9.566v6.43h-2.886V49.2h2.028l.6.822a3.966,3.966,0,0,1,2.594-1.041,3.13,3.13,0,0,1,2.886,1.334,4.325,4.325,0,0,1,3-1.334c2.229,0,3.526,1.151,3.526,4.275v5.352H285.19V53.585c0-1.443-.585-1.864-1.517-1.864a2.65,2.65,0,0,0-1.516.475,9.429,9.429,0,0,1,.055,1.06v5.352h-2.886V53.585c0-1.443-.585-1.864-1.535-1.864a2.465,2.465,0,0,0-1.462.457Zm-10.067.8h3.709c-.2-1.224-.859-1.809-1.845-1.809a1.869,1.869,0,0,0-1.864,1.809Zm2.065,5.809c-2.777,0-5.006-1.37-5.006-4.987,0-3.38,2.156-4.841,4.64-4.841,3,0,4.33,2.1,4.33,5.407h-6.047a2.2,2.2,0,0,0,2.54,2.1,5.386,5.386,0,0,0,3.079-.844l-.392,2.29a4.748,4.748,0,0,1-3.145.874Zm-10.748-2.429a2.526,2.526,0,0,0,1.662-.493V51.777a2.825,2.825,0,0,0-1.571-.4c-1.407,0-2.211.95-2.211,2.539,0,1.553.822,2.448,2.119,2.448Zm2.229,1.553a4.416,4.416,0,0,1-2.831.913c-2.576,0-4.439-1.589-4.439-4.859a4.636,4.636,0,0,1,4.877-5.005,5.057,5.057,0,0,1,1.827.31V45.281h2.887V58.609H260.3Zm-19.5-4.878V46.065h3v6.918c0,2.484,1.114,3,2.649,3,1.663,0,2.521-.731,2.521-3V46.065h3.014v6.972c0,4.111-1.79,5.828-5.681,5.828-3.617,0-5.5-1.48-5.5-5.828Z" transform="translate(-198.634 -37.428)"/><path class="b" d="M34.039,16.133a.921.921,0,0,0-.407-.191,19.567,19.567,0,0,1-2.9,2.418,2.687,2.687,0,0,1-1.358.438c-.842,0-1.208-.8-1.318-2.079-.146-1.714-.245-3.768-.245-6.942,0-3.255-.739-5.468-2.707-5.642-.083-.007-.167-.012-.255-.012-1.208,0-1.794.62-2.563,2.189-.659,1.349-1.684,3.319-3.587,7.04a49.784,49.784,0,0,1-5.052,8.025,5.43,5.43,0,0,1-1.111,1.135,1.155,1.155,0,0,1-.646.215c-.621,0-1.075-.524-1.227-1.745a8.087,8.087,0,0,1-.055-.99c0-2.517.952-6.6,2.6-12.621C14.413,2.992,13.9,0,11.265,0h-.031A2.5,2.5,0,0,0,9.665.6,5.759,5.759,0,0,0,8.287,2.841C7.793,4.05,4.787,10.079,0,13.185A2.236,2.236,0,0,0,1.97,15.674a4.741,4.741,0,0,0,3.236-1.16c-.085.377-.163.729-.234,1.051-.084.38-.156.708-.213.973-.086.394-.14.648-.157.718A20.145,20.145,0,0,0,4.262,19.3c-.674,6.029,2.12,9,5.393,9a6.576,6.576,0,0,0,1.627-.2c3.606-.914,7.077-5.05,11.186-14.571a26.441,26.441,0,0,0-.024,2.9c.271,5.457,2.429,7.094,5.478,7.094a7.14,7.14,0,0,0,5.564-2.7,5.331,5.331,0,0,0,1.135-3.137,1.982,1.982,0,0,0-.582-1.56" transform="translate(0 -0.002)"/></g></g></svg>